<?xml version="1.0" standalone="no"?>
<!DOCTYPE svg PUBLIC "-//W3C//DTD SVG 20010904//EN"
 "http://www.w3.org/TR/2001/REC-SVG-20010904/DTD/svg10.dtd">
<svg version="1.0" xmlns="http://www.w3.org/2000/svg"
 width="1024.000000pt" height="1024.000000pt" viewBox="0 0 1024.000000 1024.000000"
 preserveAspectRatio="xMidYMid meet">

<g transform="translate(0.000000,1024.000000) scale(0.100000,-0.100000)"
fill="#000000" stroke="none">
<path d="M0 9309 c1 -826 2 -930 16 -925 9 3 12 1 9 -4 -3 -6 -1 -10 5 -10 6
0 8 -4 5 -10 -3 -5 1 -10 9 -10 8 0 18 5 22 12 5 7 3 8 -6 3 -10 -6 -12 -4 -7
8 4 10 1 17 -6 18 -7 0 -3 5 8 10 18 8 17 9 -6 6 -14 -2 -26 1 -26 8 0 7 15
10 39 8 37 -3 39 -2 36 24 -2 16 2 28 11 31 10 3 12 0 8 -12 -4 -9 -2 -16 3
-16 6 0 10 5 10 10 0 6 5 10 11 10 5 0 7 -5 3 -12 -4 -7 -3 -8 4 -4 17 10 15
26 -3 26 -19 0 -19 20 2 45 10 13 14 15 10 4 -3 -9 -1 -22 5 -30 8 -11 9 -10
4 4 -3 9 -1 17 5 17 6 0 8 4 4 9 -7 13 30 24 55 16 15 -5 20 -2 19 12 0 10 -3
13 -6 5 -2 -6 -9 -10 -14 -6 -16 9 -10 22 9 19 9 -2 21 -4 25 -4 5 -1 5 -7 1
-13 -5 -9 -2 -8 9 1 16 13 16 15 -4 25 -19 10 -25 35 -7 29 4 -2 10 7 13 18 5
16 13 20 31 16 13 -2 24 0 24 6 0 5 6 4 14 -2 9 -7 17 -8 20 -2 3 5 0 11 -6
14 -10 3 -9 8 2 22 11 14 12 17 1 11 -9 -6 -12 -5 -9 5 3 8 18 14 34 14 18 0
28 5 26 13 -1 7 5 15 13 18 8 3 12 10 9 15 -3 5 -2 9 3 8 22 -4 34 2 27 14 -4
6 3 3 17 -8 19 -16 21 -16 10 -2 -12 15 -12 20 -1 30 7 7 10 7 7 1 -4 -6 5
-16 18 -22 14 -6 24 -8 24 -4 -1 4 -1 15 0 26 1 17 2 16 19 -3 14 -19 21 -20
42 -11 l25 10 -28 -3 c-36 -5 -40 3 -17 33 17 22 19 23 25 7 4 -9 11 -17 17
-17 5 0 6 6 2 12 -5 7 -9 19 -10 28 -1 8 -5 24 -10 35 -5 12 5 6 25 -15 19
-19 29 -28 22 -19 -6 9 -7 20 -3 24 4 5 1 5 -6 1 -6 -4 -12 -2 -12 3 0 6 5 11
11 11 5 0 7 5 4 10 -4 6 -12 7 -18 3 -7 -4 -6 0 2 10 15 18 26 23 16 7 -3 -6
1 -13 9 -16 9 -3 13 -11 9 -17 -3 -6 4 -3 16 5 15 11 36 15 60 11 27 -3 32 -2
21 6 -8 6 -11 11 -6 11 5 0 3 7 -4 16 -8 8 -9 14 -4 13 25 -4 44 3 44 17 0 8
5 12 11 9 6 -4 8 -13 5 -21 -3 -7 -2 -16 3 -18 4 -3 8 0 8 7 0 7 2 17 3 22 5
20 0 36 -10 30 -6 -4 -7 1 -3 11 5 13 3 15 -7 9 -9 -6 -11 -4 -5 5 6 10 11 9
22 -5 15 -22 35 -27 54 -13 11 8 10 9 -3 4 -21 -6 -30 5 -17 24 5 9 9 10 9 3
0 -14 40 -14 58 1 11 8 10 11 -5 17 -17 7 -17 8 0 8 10 1 16 4 14 9 -3 4 10 8
28 9 19 2 37 -2 40 -7 3 -6 2 -10 -4 -10 -5 0 -9 -9 -8 -19 0 -11 5 -17 9 -15
5 3 6 10 3 15 -4 5 1 12 9 15 9 3 16 11 16 17 0 6 -3 8 -6 4 -4 -3 -13 0 -20
8 -8 7 -22 12 -31 11 -10 -2 -12 -1 -5 1 6 3 12 11 12 19 0 8 5 14 11 14 6 0
9 -7 5 -15 -8 -23 0 -18 40 20 19 19 34 29 31 22 -2 -6 0 -20 5 -29 5 -11 5
-18 0 -18 -6 0 -12 -9 -15 -20 -3 -11 -1 -20 3 -20 11 0 25 40 21 59 -1 7 2
10 7 7 5 -3 16 2 23 11 12 14 11 15 -9 9 -13 -5 -22 -3 -22 3 0 6 7 11 15 11
8 0 15 6 15 14 0 8 7 16 15 20 18 7 19 -5 3 -24 -7 -8 0 -4 16 10 l30 25 -17
-27 c-10 -16 -13 -28 -8 -28 5 0 13 9 16 20 4 11 12 19 18 18 7 -1 26 5 42 15
17 9 26 16 20 17 -5 0 -3 5 5 11 12 8 9 9 -10 5 -25 -6 -25 -6 -2 5 12 7 22
20 22 30 0 13 5 17 18 12 15 -6 15 -5 3 10 -7 10 -9 17 -3 17 6 0 12 -4 14 -9
2 -4 13 -12 26 -15 15 -5 24 -3 28 8 3 9 10 16 16 16 5 0 7 -4 3 -9 -3 -5 -1
-12 5 -16 6 -4 9 4 8 18 -2 17 -7 23 -18 20 -10 -3 -11 -2 -4 4 6 4 14 18 18
31 8 23 36 31 36 10 0 -9 3 -9 8 -3 4 6 17 10 30 9 12 -1 22 3 22 7 0 5 -6 9
-12 10 -7 0 0 5 16 11 19 7 24 13 16 18 -8 5 -2 7 16 7 16 -1 34 -9 41 -17 6
-8 15 -12 19 -7 4 4 2 7 -4 7 -7 0 -12 5 -12 12 0 6 3 8 6 5 4 -3 16 -1 27 4
13 8 16 14 8 18 -8 5 -7 13 4 27 15 18 15 18 8 0 -5 -15 -3 -17 8 -10 8 5 17
9 21 9 20 0 46 35 42 57 l-5 23 11 -23 c5 -13 7 -29 4 -35 -3 -7 1 -4 9 6 8 9
20 17 28 17 10 0 10 -3 1 -12 -7 -7 -12 -17 -12 -23 0 -5 6 -1 12 10 11 19 11
19 18 0 6 -18 7 -17 12 3 4 12 2 20 -3 16 -17 -10 -9 7 15 33 15 16 30 24 40
20 15 -6 21 4 17 26 -1 5 3 6 8 2 6 -3 8 -12 5 -19 -7 -17 41 -9 56 10 6 7 17
11 24 8 8 -3 16 2 19 10 4 9 2 16 -3 16 -6 0 -10 8 -10 18 1 16 1 16 11 0 12
-22 23 -23 43 -2 9 9 16 11 16 4 0 -6 5 -8 10 -5 6 4 7 11 4 17 -5 7 -2 8 5 4
7 -5 10 -15 6 -23 -4 -12 -3 -13 8 -5 8 7 17 9 21 5 4 -4 4 0 0 10 -4 11 -1
17 7 17 7 0 9 3 6 6 -4 4 -12 2 -19 -4 -9 -7 -17 -5 -28 6 -13 14 -12 15 4 9
10 -4 25 -2 32 4 8 6 14 8 14 4 0 -4 7 -2 16 5 13 11 16 10 21 -8 6 -24 15
-27 44 -12 13 7 19 7 19 0 0 -5 -5 -10 -12 -10 -6 0 -8 -3 -5 -7 4 -3 17 4 29
17 18 20 19 23 4 17 -12 -5 -16 -3 -13 5 2 7 12 12 21 10 10 -2 23 2 30 8 8 5
22 8 32 4 18 -5 18 -5 1 6 -15 10 -16 14 -6 27 11 13 14 13 26 -3 7 -10 13
-12 13 -6 0 7 7 12 16 12 10 0 14 -6 10 -15 -8 -22 2 -18 15 6 7 13 7 19 1 15
-6 -3 -13 -2 -17 4 -10 16 21 12 35 -5 9 -10 17 -12 30 -5 9 5 20 7 23 4 3 -4
4 9 2 26 -4 30 -3 31 9 14 8 -10 18 -16 22 -11 4 4 2 7 -4 7 -6 0 -9 7 -6 15
4 8 10 15 16 15 5 0 7 -3 5 -7 -3 -5 1 -14 9 -20 8 -8 15 -9 19 -3 3 6 2 10
-2 10 -5 0 -9 10 -10 23 0 12 1 16 4 10 3 -7 9 -13 14 -13 6 0 7 5 4 11 -4 6
2 5 14 -3 12 -7 21 -16 21 -20 0 -5 5 -8 11 -8 5 0 7 5 3 12 -5 8 -1 9 12 5
19 -7 19 -7 0 8 -10 8 -23 12 -27 9 -5 -3 -6 2 -3 10 3 9 10 16 16 16 5 0 6
-5 2 -11 -5 -8 1 -10 19 -7 15 3 24 2 22 -2 -9 -15 25 -19 39 -5 7 8 16 12 18
10 2 -3 3 9 2 25 -1 17 3 33 9 37 5 3 7 1 4 -4 -5 -7 10 -10 41 -9 35 2 48 7
50 20 3 13 7 15 18 5 11 -9 14 -8 14 7 0 14 2 16 9 6 7 -11 9 -11 14 2 9 24
26 19 19 -6 -4 -16 -2 -19 8 -13 10 6 12 4 7 -7 -4 -12 -1 -14 13 -11 17 5 17
7 5 20 -18 17 -19 29 -3 39 7 4 8 3 4 -4 -11 -19 3 -34 18 -19 10 9 11 14 2
19 -6 5 -1 8 12 8 14 0 21 4 16 11 -4 8 -1 8 13 1 11 -6 29 -8 41 -5 13 3 22
1 22 -6 0 -5 -8 -8 -17 -5 -14 5 -15 4 -4 -4 10 -7 21 -6 37 6 12 10 20 20 18
24 -2 3 5 4 16 1 11 -3 17 -9 14 -14 -3 -5 -9 -7 -14 -4 -16 10 -21 -29 -5
-44 9 -9 15 -11 15 -4 0 6 -6 14 -12 16 -17 7 12 29 29 22 7 -2 15 0 18 6 4 5
12 6 18 2 7 -4 6 0 -2 10 -7 9 -17 14 -22 11 -5 -3 -17 0 -26 5 -15 9 -13 10
12 9 17 -1 35 -5 40 -8 6 -4 21 -7 35 -8 19 -1 21 1 10 8 -8 5 -13 10 -10 11
3 0 13 2 22 4 21 4 33 -11 18 -20 -5 -3 -10 -12 -10 -18 0 -7 5 -4 11 6 5 9
19 17 29 17 11 0 20 4 20 9 0 6 -9 8 -20 6 -11 -2 -20 0 -20 4 0 5 13 8 29 7
16 0 27 -5 24 -9 -3 -5 5 -6 17 -2 15 5 20 4 16 -4 -5 -7 3 -11 21 -10 20 0
23 2 11 7 -13 5 -15 11 -8 22 9 13 10 13 10 0 0 -12 2 -12 9 -1 6 9 11 10 15
2 4 -6 13 -11 19 -11 7 0 4 5 -5 11 -10 5 -23 20 -29 32 -11 21 -11 21 15 -2
14 -14 26 -21 26 -17 0 4 7 0 16 -9 21 -20 32 -11 13 11 -19 23 -21 47 -2 40
8 -3 20 -6 26 -7 7 -1 1 -4 -12 -8 -21 -6 -19 -7 18 -17 22 -6 38 -7 35 -3 -3
5 4 9 15 9 13 0 21 7 21 16 0 9 6 14 12 12 7 -3 24 1 38 9 14 7 26 9 28 3 2
-5 13 -5 27 0 12 5 26 6 29 3 3 -4 6 -1 6 5 0 5 -6 13 -12 15 -10 4 -10 6 -1
6 7 1 17 -9 24 -20 8 -15 8 -19 0 -15 -6 4 -11 3 -11 -3 0 -11 18 -24 38 -27
6 -1 12 2 12 8 0 6 -6 8 -12 5 -8 -3 -13 4 -13 18 0 14 5 21 12 18 7 -3 10
-10 6 -17 -5 -8 -3 -8 8 0 13 10 38 11 68 3 7 -2 15 1 18 8 2 6 -4 13 -14 16
-10 3 -2 5 17 6 26 0 31 -2 20 -9 -8 -5 -10 -10 -5 -10 6 0 16 5 23 12 9 9 12
9 12 -3 0 -9 7 -16 15 -16 11 0 12 4 5 11 -14 14 -13 23 5 23 8 0 15 -4 15 -9
0 -4 8 -8 18 -8 14 0 15 2 2 10 -13 8 -12 10 3 10 11 0 15 4 11 12 -4 7 -3 8
4 4 7 -4 26 -9 44 -10 18 -2 42 -7 52 -12 14 -5 17 -4 12 4 -5 8 0 12 13 12
12 0 21 -5 21 -11 0 -5 -6 -7 -12 -3 -7 4 -9 3 -5 -1 11 -13 37 -15 37 -4 0 6
5 7 10 4 6 -4 7 -12 3 -18 -4 -7 1 -6 10 2 10 7 17 19 16 25 -5 40 16 46 39
11 10 -16 12 -16 8 -2 -3 9 -1 17 4 17 6 0 10 -4 10 -9 0 -4 13 -8 30 -7 16 1
30 5 30 10 0 5 6 3 13 -3 8 -6 17 -8 20 -4 10 9 56 10 51 1 -3 -4 -12 -8 -20
-8 -8 0 -14 -7 -14 -16 0 -14 1 -14 16 0 15 15 29 20 47 17 5 -1 5 4 1 10 -5
9 -2 10 10 6 12 -5 16 -3 13 5 -2 7 -10 12 -16 10 -7 -1 -9 3 -6 9 5 8 12 6
23 -5 12 -12 13 -18 3 -30 -7 -9 -11 -21 -8 -28 4 -9 6 -7 6 4 1 10 7 15 19
11 10 -2 28 5 41 16 13 12 29 21 35 21 6 0 4 -5 -4 -10 -20 -13 -4 -13 20 0
16 9 18 8 13 -6 -5 -14 -3 -15 17 -4 18 10 24 9 32 -1 7 -10 8 -8 5 9 -3 12
-1 22 3 22 5 0 17 3 27 6 16 6 16 5 -2 -9 -16 -13 -18 -18 -7 -28 9 -10 12
-10 12 -1 0 7 6 12 13 11 13 -2 32 4 85 27 21 9 32 10 32 3 0 -6 -9 -13 -20
-16 -11 -3 -20 -12 -20 -20 0 -17 19 -8 38 19 7 10 19 18 25 17 9 0 9 -2 1 -5
-7 -3 -10 -15 -7 -27 4 -18 3 -19 -6 -7 -7 9 -11 10 -11 3 0 -29 35 -19 40 12
3 18 10 19 10 1 0 -15 2 -15 24 -1 23 15 25 15 40 -7 9 -12 16 -18 16 -13 0 6
5 3 10 -5 6 -9 10 -10 10 -3 0 7 -7 16 -15 20 -13 8 -13 12 -2 27 11 15 16 16
22 6 5 -9 4 -11 -3 -6 -7 4 -12 3 -12 -2 0 -5 9 -12 20 -15 13 -3 18 -1 13 5
-4 7 -1 8 7 3 7 -4 16 -2 20 5 11 18 51 -5 44 -25 -4 -8 -1 -15 6 -15 6 0 8 5
5 10 -3 6 3 10 15 10 14 0 19 -4 15 -12 -4 -7 1 -4 9 6 9 12 14 29 10 40 -5
19 -5 19 11 -2 15 -20 43 -22 30 -2 -3 5 0 12 6 16 7 4 9 3 5 -4 -3 -6 -1 -14
5 -18 8 -4 7 -9 -2 -15 -7 -4 -11 -11 -7 -14 3 -3 12 1 21 9 13 14 15 13 20
-4 4 -17 9 -18 36 -9 17 6 29 14 26 18 -5 10 27 7 43 -3 8 -5 19 -1 28 10 14
18 14 17 4 -5 -9 -18 -9 -26 1 -35 9 -8 10 -8 4 3 -6 11 -4 13 8 8 9 -3 27 3
41 14 15 11 26 15 26 9 0 -7 6 -5 16 4 22 22 25 20 14 -9 -6 -16 -6 -25 0 -25
6 0 10 5 10 12 0 9 3 9 12 0 7 -7 17 -12 23 -12 5 0 3 5 -5 10 -13 8 -12 10 3
10 9 0 17 -8 18 -17 0 -12 2 -13 6 -5 6 15 -16 44 -27 37 -4 -3 -11 2 -14 10
-4 12 -2 13 13 6 10 -6 22 -7 26 -3 5 4 5 1 1 -5 -4 -7 -3 -13 1 -13 5 0 15 6
22 13 10 10 11 8 5 -7 -5 -13 -4 -17 4 -12 7 4 12 2 12 -3 0 -6 8 -11 18 -10
10 0 12 3 5 6 -23 9 -14 23 15 22 15 0 22 -3 15 -5 -18 -8 -4 -34 18 -34 10 0
19 5 19 10 0 6 5 10 11 10 6 0 9 -7 5 -15 -4 -13 -2 -13 14 -5 10 5 29 9 42 7
17 -1 22 2 20 16 -3 16 -1 16 17 5 12 -7 21 -20 21 -28 0 -13 -1 -13 -10 0 -6
9 -10 10 -10 3 0 -21 15 -22 40 -2 21 16 22 18 5 13 -16 -5 -17 -4 -5 5 23 17
33 13 27 -10 -3 -12 -3 -18 0 -15 10 9 44 -14 37 -26 -4 -7 -3 -8 4 -4 7 4 12
22 13 39 0 18 3 26 6 19 2 -6 9 -10 14 -6 5 3 9 1 9 -5 0 -5 -6 -12 -12 -14
-7 -3 -3 -6 10 -6 13 -1 21 3 17 8 -3 5 -1 12 4 15 5 4 12 2 15 -3 4 -5 2 -12
-4 -16 -5 -3 -10 -13 -10 -22 0 -12 6 -9 24 10 17 19 30 24 47 20 21 -6 21 -7
4 -13 -17 -6 -17 -7 -1 -13 24 -10 48 -9 42 1 -3 5 11 8 30 7 20 0 38 3 40 7
6 10 24 1 24 -12 0 -5 -6 -7 -13 -4 -8 3 -19 -2 -26 -10 -10 -12 -8 -14 11 -9
21 5 22 5 5 -9 -18 -13 -17 -14 2 -14 12 0 21 6 21 13 0 11 5 11 20 3 11 -6
18 -15 15 -21 -4 -5 -1 -9 5 -9 6 0 9 8 6 18 -4 13 0 18 14 19 13 1 20 -4 20
-15 0 -15 -2 -15 -10 -2 -6 9 -10 10 -10 3 0 -6 4 -14 8 -17 13 -8 35 11 28
23 -4 6 -3 11 1 11 5 0 15 -10 22 -22 14 -23 14 -23 27 12 7 19 13 27 13 18 1
-10 8 -19 16 -19 28 -3 33 -4 41 -11 4 -5 2 -8 -5 -8 -7 0 -9 -5 -6 -11 5 -6
12 -4 22 8 13 17 14 16 10 -9 -2 -16 -2 -28 0 -28 7 0 34 29 34 37 1 13 9 17
9 5 0 -7 6 -11 13 -9 6 1 11 -4 10 -10 -2 -7 4 -13 12 -13 8 0 15 -6 15 -12 0
-9 4 -8 10 2 7 11 4 20 -13 32 -12 10 -16 18 -9 18 7 0 23 -9 35 -20 12 -12
23 -17 25 -11 5 16 57 -5 56 -23 -2 -13 1 -14 12 -5 7 6 18 8 23 5 5 -4 14 2
20 11 6 10 11 13 11 6 0 -7 7 -10 18 -6 14 5 13 3 -3 -10 -16 -13 -18 -18 -7
-29 11 -11 12 -10 7 4 -6 15 -3 16 23 9 22 -7 36 -5 53 7 12 8 19 10 15 4 -5
-8 2 -12 19 -12 15 0 24 -4 20 -10 -4 -6 -3 -10 2 -9 19 3 34 -2 29 -10 -3 -5
12 -7 34 -6 22 2 40 -1 40 -5 0 -5 9 -6 20 -3 11 3 20 0 20 -6 0 -6 -4 -11 -9
-11 -5 0 -12 -8 -15 -17 -6 -16 -6 -16 12 0 24 22 32 21 32 0 1 -16 2 -16 11
1 9 14 8 20 -2 27 -11 7 -10 9 4 9 10 0 17 -7 17 -17 0 -10 4 -14 8 -8 10 15
32 17 30 3 -2 -7 2 -12 7 -13 6 0 16 -4 24 -9 9 -6 12 -5 7 2 -3 6 -1 14 5 18
8 5 10 -1 7 -20 -4 -21 -2 -26 16 -26 16 0 18 2 7 9 -21 13 -4 33 18 21 21
-11 34 -57 17 -63 -6 -2 7 -4 29 -4 22 0 30 2 18 4 -24 5 -39 30 -17 30 7 0
11 -4 8 -9 -7 -11 3 -10 28 3 18 10 20 9 16 -9 -4 -15 -2 -19 9 -15 12 5 14 1
8 -15 -10 -34 5 -26 16 8 6 17 16 30 22 30 7 0 7 -4 -1 -12 -15 -15 -16 -32
-2 -23 6 3 10 2 10 -3 0 -6 7 -13 16 -16 13 -5 15 -2 11 14 -7 26 1 25 31 -2
13 -13 22 -17 20 -9 -2 7 3 16 11 19 8 3 11 0 7 -7 -4 -6 -1 -11 8 -11 9 0 16
-5 16 -11 0 -5 -4 -7 -10 -4 -5 3 -10 1 -10 -5 0 -7 7 -9 16 -6 10 4 25 -1 36
-11 11 -10 19 -13 18 -8 -2 6 -2 18 -1 28 1 21 25 18 27 -4 1 -8 2 -20 3 -26
1 -10 7 -10 26 -1 30 13 43 5 25 -17 -7 -9 -10 -18 -6 -22 3 -3 6 -2 6 4 0 6
9 9 20 6 12 -3 20 0 20 7 0 7 12 1 26 -14 15 -14 31 -26 37 -26 6 0 3 6 -7 13
-17 12 -17 14 -2 20 9 4 16 2 16 -4 0 -6 4 -8 9 -4 5 3 13 0 17 -6 5 -8 2 -10
-7 -5 -8 4 -5 0 5 -8 20 -16 20 -16 0 -17 -11 0 -14 -3 -6 -6 7 -3 23 3 34 13
12 11 18 13 14 7 -4 -7 -3 -13 3 -13 5 0 11 6 14 13 3 6 4 2 4 -10 -1 -17 -6
-22 -18 -18 -10 3 -21 0 -25 -7 -4 -7 -4 -10 1 -6 4 4 22 0 39 -9 29 -15 30
-15 17 0 -12 15 -11 17 7 17 14 0 20 -5 16 -14 -3 -8 -1 -17 5 -21 7 -4 8 0 4
11 -4 12 -3 15 5 10 7 -4 12 -3 12 3 0 5 -8 15 -17 20 -10 6 -12 11 -5 11 22
0 27 -2 24 -11 -1 -5 3 -9 10 -9 6 0 8 -3 5 -7 -9 -8 22 -43 37 -43 6 0 4 5
-4 10 -9 6 -10 10 -3 10 6 0 19 -7 27 -16 14 -14 16 -14 16 0 0 10 6 13 17 9
11 -4 12 -8 5 -11 -17 -5 -15 -22 4 -22 9 0 12 -5 8 -12 -5 -9 -3 -9 9 1 9 7
14 17 11 22 -3 5 2 6 11 3 14 -6 14 -8 -1 -19 -12 -8 -14 -14 -6 -19 7 -4 12
-4 12 0 0 4 7 -1 15 -12 15 -19 15 -19 8 1 -6 19 -5 19 18 -1 13 -12 30 -19
37 -17 7 3 20 -1 28 -8 12 -10 15 -10 12 2 -2 8 -7 17 -11 20 -4 3 -1 12 8 19
11 9 15 9 15 1 0 -7 5 -9 13 -5 6 4 3 -2 -7 -14 -17 -20 -15 -27 7 -23 18 3 4
-10 -25 -24 -18 -8 -25 -13 -15 -10 9 2 17 0 17 -4 0 -5 7 -12 16 -15 12 -5
15 -2 10 9 -3 9 -2 14 3 11 5 -3 11 2 13 12 3 10 12 19 21 19 9 0 14 -4 11 -9
-3 -5 -10 -6 -15 -3 -5 4 -9 2 -9 -4 0 -5 -3 -17 -7 -27 -4 -11 -3 -15 4 -11
6 4 14 1 17 -5 3 -7 3 -2 0 11 -4 16 -3 21 5 17 6 -4 11 -1 11 6 0 10 3 9 10
-2 6 -9 5 -17 -3 -23 -7 -5 -1 -7 16 -4 15 2 27 0 27 -4 0 -5 7 -9 16 -9 11 0
13 -6 9 -19 -3 -11 0 -23 6 -27 8 -4 9 -3 5 4 -4 7 -2 12 4 12 6 0 9 4 5 9 -3
5 0 13 6 17 7 4 9 3 5 -4 -3 -5 0 -13 6 -15 10 -4 9 -8 -2 -17 -13 -10 -12
-11 4 -6 15 5 17 2 13 -14 -3 -11 -1 -18 3 -15 5 3 11 -1 13 -7 3 -7 4 0 4 16
-1 16 4 31 11 34 9 3 13 -3 10 -19 -2 -20 1 -24 21 -21 13 1 30 10 38 20 13
15 13 15 3 -5 -6 -13 -17 -23 -25 -23 -8 0 -15 -4 -15 -8 0 -5 18 -8 39 -7 29
1 38 -2 34 -12 -6 -16 -15 -17 -31 -1 -9 9 -12 8 -12 -7 0 -10 3 -15 7 -12 3
4 15 0 25 -10 10 -9 18 -13 18 -10 0 3 15 0 34 -8 18 -8 36 -11 40 -8 3 4 6 1
6 -5 0 -7 -4 -12 -8 -12 -5 0 -9 -6 -9 -12 0 -7 10 -13 23 -13 12 0 20 3 18 7
-2 4 0 9 6 13 5 3 10 0 10 -8 0 -8 7 -18 16 -21 22 -8 26 -8 19 3 -3 5 -1 12
4 16 6 3 8 -5 5 -19 -2 -14 0 -28 6 -31 5 -3 10 2 10 12 0 15 2 14 15 -4 10
-14 22 -20 33 -17 10 4 13 2 7 -3 -17 -14 -16 -33 1 -26 14 5 15 3 5 -15 -11
-20 -8 -26 11 -23 5 0 8 -4 8 -11 0 -6 3 -8 6 -5 4 4 2 13 -5 21 -10 11 -6 13
19 11 37 -3 49 -12 26 -21 -23 -9 -20 -23 4 -21 11 1 20 5 20 9 0 4 5 8 10 8
6 0 9 -5 8 -12 -2 -7 2 -12 9 -13 6 0 15 -4 20 -9 5 -5 2 -6 -6 -1 -9 5 -12 4
-7 -3 5 -9 12 -9 26 0 10 7 16 16 13 22 -4 5 -1 6 6 1 9 -5 9 -11 2 -18 -7 -7
-3 -16 12 -29 12 -11 16 -17 10 -13 -7 3 -13 2 -13 -3 0 -6 7 -12 15 -16 10
-4 15 1 16 17 0 14 2 16 6 7 7 -23 10 -34 11 -43 1 -4 8 -15 17 -24 13 -12 19
-13 28 -4 9 10 9 12 -2 9 -9 -2 -16 6 -18 17 -3 18 -2 18 5 2 4 -10 12 -19 17
-19 6 0 9 -4 7 -9 -1 -5 5 -9 13 -9 20 0 19 -8 -3 -28 -10 -10 -12 -13 -5 -8
7 5 13 5 14 0 0 -5 7 5 14 21 12 25 21 20 16 -8 -1 -5 4 -7 11 -4 7 2 12 10
10 16 -3 15 3 14 18 -5 11 -12 11 -15 -1 -12 -8 2 -13 -2 -12 -9 2 -7 -4 -10
-12 -7 -11 5 -13 2 -9 -10 3 -9 10 -14 14 -11 5 3 11 -1 13 -7 3 -7 6 -2 6 12
1 18 4 21 12 13 6 -6 17 -9 24 -7 15 6 16 -28 1 -38 -7 -5 -5 -8 6 -8 9 0 19
8 22 18 3 9 4 3 2 -15 -1 -19 2 -29 8 -26 5 4 7 -1 3 -10 -3 -9 -1 -19 5 -23
7 -4 8 -3 4 4 -4 6 2 20 13 31 11 11 16 23 13 27 -4 4 -1 4 6 0 7 -5 11 -15 8
-23 -4 -9 -1 -13 6 -10 7 2 12 11 10 18 -2 8 0 10 5 6 4 -5 8 -16 8 -25 0 -9
6 -16 13 -14 8 1 11 -2 6 -9 -5 -9 -2 -10 9 -6 10 3 17 2 17 -2 0 -5 -4 -11
-9 -13 -5 -1 -1 -14 10 -27 10 -13 19 -18 19 -12 0 6 5 11 11 11 5 0 7 -5 4
-10 -4 -6 -3 -10 2 -9 34 6 43 -10 18 -34 -13 -13 -13 -16 0 -21 10 -3 15 1
15 12 0 14 2 15 9 2 6 -8 8 -17 5 -21 -2 -4 3 -9 11 -13 8 -3 14 -2 13 2 0 4
4 18 10 32 l11 25 1 -30 c0 -23 3 -27 10 -15 9 13 10 13 11 0 1 -8 1 -20 0
-26 -1 -7 8 -14 20 -17 16 -4 19 -11 14 -26 -8 -26 12 -28 30 -4 11 14 13 13
17 -10 3 -15 1 -27 -3 -27 -5 0 -9 -5 -9 -11 0 -6 14 -9 34 -6 27 4 33 1 29
-10 -4 -11 1 -13 23 -7 28 6 28 6 9 -9 -11 -8 -24 -13 -29 -10 -5 4 -6 1 -3
-5 4 -5 16 -8 27 -5 11 3 20 0 20 -6 0 -6 -6 -11 -13 -11 -8 0 -14 -7 -14 -15
0 -10 4 -12 10 -6 15 15 71 -17 58 -32 -13 -17 3 -42 20 -32 9 6 8 10 -7 16
-14 5 -10 7 13 6 37 -2 43 -12 13 -22 -25 -8 -25 -18 -2 -36 15 -12 16 -12 4
2 -10 14 -9 17 7 22 16 4 18 0 16 -29 -3 -31 -2 -33 16 -24 10 6 19 13 19 16
0 3 -4 2 -10 -1 -5 -3 -10 -1 -10 4 0 19 22 12 27 -9 3 -11 10 -17 16 -13 6 4
7 1 3 -6 -5 -7 -14 -10 -22 -7 -8 3 -14 1 -14 -5 0 -7 10 -9 25 -5 20 5 25 3
25 -11 0 -15 2 -15 9 -4 16 26 41 22 41 -6 0 -18 4 -24 15 -19 9 3 15 0 15
-10 0 -23 -34 -13 -38 11 -6 33 -17 36 -19 4 -2 -19 2 -29 12 -29 9 0 12 -6 9
-17 -4 -11 -3 -14 3 -7 8 12 25 11 56 -1 18 -8 25 10 7 18 -6 3 -5 4 2 3 7 -1
13 -12 14 -23 1 -12 4 -28 7 -37 4 -9 2 -16 -3 -16 -6 0 -10 -5 -10 -11 0 -5
4 -8 9 -4 5 3 16 -1 24 -10 13 -13 16 -13 21 1 3 9 13 14 20 11 8 -3 17 -1 20
6 4 11 6 2 10 -43 1 -8 8 -13 16 -11 8 2 20 4 25 5 6 1 17 6 25 11 13 8 13 7
1 -8 -7 -9 -22 -17 -32 -17 -11 0 -19 -5 -19 -12 0 -7 -6 -5 -17 4 -27 23 -60
31 -60 14 0 -10 8 -13 25 -10 21 4 23 3 13 -10 -8 -10 -9 -16 -1 -21 5 -3 10
2 11 12 0 10 3 13 6 6 2 -7 13 -13 23 -13 11 0 20 -10 24 -25 4 -14 11 -23 16
-20 9 6 14 -8 11 -27 -3 -20 11 -5 20 22 10 28 27 35 41 16 10 -14 -2 -35 -17
-29 -10 3 -13 -1 -10 -16 2 -12 -3 -25 -13 -31 -16 -9 -16 -9 1 -10 9 0 17 4
17 9 0 13 48 1 61 -16 10 -11 9 -14 -2 -11 -8 2 -13 -2 -12 -9 2 -7 -4 -10
-11 -7 -8 3 -12 13 -9 22 4 14 3 15 -5 2 -14 -19 5 -43 30 -37 22 6 23 -2 1
-18 -13 -9 -13 -14 -3 -20 9 -6 11 -4 5 5 -6 10 -4 12 9 7 9 -4 14 -3 11 2 -3
5 -1 12 5 16 6 4 10 -8 10 -30 0 -22 6 -38 15 -41 8 -4 12 -10 9 -15 -3 -5 1
-9 9 -9 19 0 17 31 -3 47 -10 8 -11 12 -3 13 6 0 15 -5 18 -10 4 -6 12 -7 18
-4 9 5 9 4 1 -5 -19 -21 -5 -53 20 -46 19 6 19 4 -4 -16 -16 -15 -19 -20 -7
-16 12 4 17 1 17 -11 0 -15 2 -15 10 -2 8 12 10 12 10 -5 0 -16 2 -17 10 -5 5
8 12 11 16 7 4 -4 -1 -17 -12 -29 -10 -12 -14 -18 -7 -14 7 4 17 -2 23 -14 6
-11 15 -20 21 -20 6 0 8 4 5 8 -2 4 -1 14 5 22 7 13 9 12 9 -1 0 -9 6 -19 14
-22 8 -3 12 -15 9 -31 -4 -21 -2 -24 16 -19 l21 5 0 1264 0 1264 -2424 0
c-1930 0 -2425 -3 -2429 -12 -4 -10 -6 -10 -6 -1 -1 10 -554 13 -2691 13
l-2690 0 0 -931z m4209 878 c0 -9 -2 -8 -6 1 -2 6 -10 9 -15 6 -7 -4 -8 -2 -4
5 9 13 26 5 25 -12z m721 13 c0 -5 -5 -10 -11 -10 -5 0 -7 5 -4 10 3 6 8 10
11 10 2 0 4 -4 4 -10z m590 0 c-8 -5 -19 -10 -25 -10 -5 0 -3 5 5 10 8 5 20
10 25 10 6 0 3 -5 -5 -10z m-1477 -17 c-7 -2 -19 -2 -25 0 -7 3 -2 5 12 5 14
0 19 -2 13 -5z m-603 -85 c0 -4 -4 -8 -9 -8 -6 0 -12 4 -15 8 -3 5 1 9 9 9 8
0 15 -4 15 -9z m3570 -153 c0 -12 -19 -12 -23 0 -4 9 -1 12 9 8 7 -3 14 -7 14
-8z m75 -35 c3 -5 1 -10 -4 -10 -6 0 -11 5 -11 10 0 6 2 10 4 10 3 0 8 -4 11
-10z m-4485 -34 c0 -2 -7 -9 -15 -16 -12 -10 -15 -10 -15 4 0 9 7 16 15 16 8
0 15 -2 15 -4z m4671 -20 c5 3 9 -2 9 -12 0 -13 -3 -14 -15 -4 -8 7 -15 18
-14 24 0 7 2 6 6 -2 2 -6 9 -10 14 -6z m78 -27 c-16 -10 -23 -4 -14 10 3 6 11
8 17 5 6 -4 5 -9 -3 -15z m56 2 c3 -5 1 -12 -5 -16 -5 -3 -10 1 -10 9 0 18 6
21 15 7z m44 -25 c8 -10 9 -16 1 -21 -5 -3 -10 0 -10 9 0 8 -6 17 -12 19 -8 4
-9 6 -2 6 6 1 17 -5 23 -13z m-5178 -29 c-10 -9 -11 -8 -5 6 3 10 9 15 12 12
3 -3 0 -11 -7 -18z m-116 -27 c3 -5 -1 -10 -10 -10 -9 0 -13 5 -10 10 3 6 8
10 10 10 2 0 7 -4 10 -10z m-21 -36 c5 -12 2 -15 -10 -10 -8 3 -18 6 -20 6 -3
0 -2 5 1 10 9 15 22 12 29 -6z m-289 -75 c11 -17 -1 -21 -15 -4 -8 9 -8 15 -2
15 6 0 14 -5 17 -11z m20 -29 c-3 -5 -12 -10 -18 -10 -7 0 -6 4 3 10 19 12 23
12 15 0z m6005 6 c0 -3 -4 -8 -10 -11 -5 -3 -10 -1 -10 4 0 6 5 11 10 11 6 0
10 -2 10 -4z m-6130 -40 c0 -3 -4 -8 -10 -11 -5 -3 -10 -1 -10 4 0 6 5 11 10
11 6 0 10 -2 10 -4z m-110 -56 c0 -5 -5 -10 -11 -10 -5 0 -7 5 -4 10 3 6 8 10
11 10 2 0 4 -4 4 -10z m-70 -44 c0 -18 -27 -29 -36 -14 -4 7 -3 8 4 4 7 -4 12
-1 12 8 0 9 5 16 10 16 6 0 10 -6 10 -14z m-150 -50 c0 -3 -4 -8 -10 -11 -5
-3 -10 -1 -10 4 0 6 5 11 10 11 6 0 10 -2 10 -4z m6870 -25 c0 -5 -7 -11 -15
-15 -15 -5 -20 5 -8 17 9 10 23 9 23 -2z m54 -19 c3 -5 -1 -9 -9 -9 -8 0 -15
4 -15 9 0 4 4 8 9 8 6 0 12 -4 15 -8z m-7010 -30 c3 -5 -1 -9 -9 -9 -8 0 -12
4 -9 9 3 4 7 8 9 8 2 0 6 -4 9 -8z m7166 -62 c-8 -5 -19 -10 -25 -10 -5 0 -3
5 5 10 8 5 20 10 25 10 6 0 3 -5 -5 -10z m-7310 -10 c0 -5 -2 -10 -4 -10 -3 0
-8 5 -11 10 -3 6 -1 10 4 10 6 0 11 -4 11 -10z m7 -52 c2 -22 1 -22 -19 1 -16
18 -15 20 1 18 9 0 18 -9 18 -19z m-152 -58 c3 -5 2 -10 -4 -10 -5 0 -13 5
-16 10 -3 6 -2 10 4 10 5 0 13 -4 16 -10z m-108 -55 c0 -8 -4 -12 -9 -9 -5 3
-6 10 -3 15 9 13 12 11 12 -6z m-207 -125 c0 -5 -5 -10 -11 -10 -5 0 -7 5 -4
10 3 6 8 10 11 10 2 0 4 -4 4 -10z m60 -10 c0 -5 -5 -10 -11 -10 -5 0 -7 5 -4
10 3 6 8 10 11 10 2 0 4 -4 4 -10z m-39 -40 c6 0 7 -4 4 -10 -12 -19 -25 -10
-24 18 1 16 3 20 6 10 2 -10 9 -18 14 -18z m-160 -82 c-11 -11 -18 -26 -14
-32 4 -7 2 -7 -6 0 -10 9 -9 16 5 33 10 11 22 21 27 21 4 0 -1 -10 -12 -22z
m8599 -72 c0 -3 -4 -8 -10 -11 -5 -3 -10 -1 -10 4 0 6 5 11 10 11 6 0 10 -2
10 -4z m-8793 -41 c0 -8 -4 -12 -9 -9 -5 3 -6 10 -3 15 9 13 12 11 12 -6z
m-72 -25 c-3 -5 -1 -10 6 -10 7 0 10 -3 6 -6 -9 -9 -28 6 -22 17 4 5 8 9 11 9
3 0 2 -4 -1 -10z m9018 -55 c-7 -21 -13 -19 -13 6 0 11 4 18 10 14 5 -3 7 -12
3 -20z m-9058 -3 c-3 -3 -11 0 -18 7 -9 10 -8 11 6 5 10 -3 15 -9 12 -12z
m9081 9 c-4 -5 0 -12 6 -14 8 -3 6 -6 -4 -6 -18 -1 -24 10 -11 22 9 10 15 8 9
-2z m94 -100 c0 -6 -4 -12 -8 -15 -5 -3 -9 1 -9 9 0 8 4 15 9 15 4 0 8 -4 8
-9z m-9352 -68 c-6 -7 -12 -13 -13 -13 -2 0 -5 6 -8 13 -3 7 3 13 14 13 13 0
15 -3 7 -13z m-18 -38 c0 -8 -7 -15 -15 -15 -13 0 -14 3 -3 15 16 18 18 18 18
0z m9597 -80 c0 -8 -4 -12 -9 -9 -5 3 -6 10 -3 15 9 13 12 11 12 -6z m73 -137
c0 -10 -20 -11 -21 0 0 4 -2 16 -4 27 -4 20 -4 20 11 1 8 -11 14 -23 14 -28z
m107 -100 c-3 -8 -6 -5 -6 6 -1 11 2 17 5 13 3 -3 4 -12 1 -19z m137 -87 c3
-5 -1 -11 -9 -14 -9 -4 -12 -1 -8 9 6 16 10 17 17 5z m24 -71 c7 -11 10 -20 6
-20 -7 0 -34 27 -34 34 0 13 16 5 28 -14z m143 -147 c-11 -5 -11 -7 0 -15 12
-8 12 -9 0 -6 -22 6 -25 28 -4 27 12 0 14 -2 4 -6z"/>
<path d="M4863 10185 c-10 -10 -9 -14 2 -19 17 -6 26 5 17 21 -5 8 -11 7 -19
-2z"/>
<path d="M5125 10169 c-16 -8 -15 -8 8 -4 21 4 27 2 21 -6 -4 -8 -3 -9 5 -5 6
4 9 12 6 17 -7 11 -14 11 -40 -2z"/>
<path d="M4070 10150 c6 -11 18 -20 27 -20 12 0 11 4 -7 20 -13 11 -25 20 -27
20 -2 0 1 -9 7 -20z"/>
<path d="M4154 10145 c8 -7 13 -15 9 -19 -4 -4 0 -4 10 0 9 3 17 10 17 16 0 5
-4 6 -10 3 -5 -3 -10 -2 -10 3 0 5 -7 9 -16 9 -15 0 -15 -1 0 -12z"/>
<path d="M5270 10151 c0 -6 4 -13 10 -16 6 -3 7 1 4 9 -7 18 -14 21 -14 7z"/>
<path d="M3860 10141 c0 -5 9 -11 19 -14 14 -3 18 -1 14 9 -6 15 -33 19 -33 5z"/>
<path d="M5919 10138 c-5 -18 -6 -38 -1 -34 7 8 12 36 6 36 -2 0 -4 -1 -5 -2z"/>
<path d="M3735 10099 c-11 -16 -1 -19 13 -3 7 8 8 14 3 14 -5 0 -13 -5 -16
-11z"/>
<path d="M6141 10103 c-2 -20 11 -43 20 -37 5 3 9 0 9 -5 0 -6 5 -11 11 -11 8
0 8 4 -1 15 -6 8 -8 20 -4 27 6 11 5 11 -8 0 -14 -11 -17 -10 -21 5 -3 10 -5
13 -6 6z"/>
<path d="M3510 10088 c0 -5 -4 -6 -10 -3 -5 3 -10 2 -10 -3 0 -5 16 -9 35 -9
40 0 49 21 10 23 -14 1 -25 -2 -25 -8z"/>
<path d="M3677 10089 c7 -7 15 -10 18 -7 3 3 -2 9 -12 12 -14 6 -15 5 -6 -5z"/>
<path d="M3457 10060 c-3 -11 -3 -20 -1 -20 2 0 8 9 14 20 6 11 7 20 2 20 -6
0 -12 -9 -15 -20z"/>
<path d="M6466 10035 c-16 -12 -17 -15 -4 -15 9 0 18 7 22 15 7 18 6 18 -18 0z"/>
<path d="M6580 10021 c0 -7 -5 -9 -12 -5 -7 5 -8 3 -3 -5 5 -9 10 -10 18 -2 6
6 8 14 4 18 -4 3 -7 1 -7 -6z"/>
<path d="M6523 10007 c0 -7 9 -13 19 -13 10 0 18 1 18 3 0 1 -8 7 -18 12 -13
7 -19 6 -19 -2z"/>
<path d="M6585 9989 c-3 -4 2 -6 10 -5 21 3 28 13 10 13 -9 0 -18 -4 -20 -8z"/>
<path d="M2877 9973 c-12 -12 -7 -22 8 -17 8 4 15 1 15 -6 0 -6 5 -8 10 -5 8
5 7 11 -1 21 -13 15 -22 18 -32 7z"/>
<path d="M6839 9958 c-7 -25 -4 -34 12 -34 22 0 21 -1 13 20 -5 13 -22 22 -25
14z"/>
<path d="M6765 9930 c-3 -6 1 -7 9 -4 18 7 21 14 7 14 -6 0 -13 -4 -16 -10z"/>
<path d="M2743 9918 c-13 -6 -23 -15 -23 -20 0 -5 9 -4 19 2 14 7 21 6 24 -3
3 -6 4 -2 4 11 -1 12 -1 22 -2 21 0 0 -10 -5 -22 -11z"/>
<path d="M6880 9920 c0 -5 5 -10 11 -10 5 0 7 5 4 10 -3 6 -8 10 -11 10 -2 0
-4 -4 -4 -10z"/>
<path d="M2643 9902 c-26 -4 -30 -17 -7 -26 8 -3 12 -2 9 4 -9 14 9 12 23 -2
7 -7 12 -8 12 -2 0 19 -16 29 -37 26z"/>
<path d="M2685 9901 c-3 -6 -2 -11 4 -11 6 0 9 -6 7 -12 -1 -7 -1 -10 1 -5 3
4 10 4 16 0 7 -4 5 2 -3 13 -8 10 -15 20 -16 22 -1 2 -5 -1 -9 -7z"/>
<path d="M6936 9901 c-4 -5 3 -7 14 -4 23 6 26 13 6 13 -8 0 -17 -4 -20 -9z"/>
<path d="M2218 9713 c6 -2 9 -10 6 -15 -4 -7 -2 -8 4 -4 18 11 14 26 -5 25
-11 0 -13 -3 -5 -6z"/>
<path d="M2060 9686 c0 -7 9 -16 21 -19 12 -3 18 -10 14 -16 -4 -7 0 -8 10 -5
13 5 11 10 -10 30 -30 28 -35 29 -35 10z"/>
<path d="M2184 9688 c-4 -7 -4 -10 1 -6 4 4 15 2 24 -5 14 -11 14 -10 2 6 -16
20 -18 21 -27 5z"/>
<path d="M7658 9653 c6 -2 18 -2 25 0 6 3 1 5 -13 5 -14 0 -19 -2 -12 -5z"/>
<path d="M1939 9624 c-7 -8 -6 -14 1 -19 6 -4 9 -1 8 5 -2 7 5 14 15 15 27 5
33 14 8 12 -12 -1 -27 -7 -32 -13z"/>
<path d="M1765 9569 c-4 -6 -5 -12 -2 -15 2 -3 7 2 10 11 7 17 1 20 -8 4z"/>
<path d="M1847 9562 c3 -7 9 -10 12 -5 3 4 10 11 15 15 4 4 -1 6 -12 5 -12 -1
-18 -6 -15 -15z"/>
<path d="M8027 9513 c-3 -5 1 -14 9 -21 12 -10 14 -10 14 2 0 17 -16 30 -23
19z"/>
<path d="M1640 9481 c0 -6 4 -12 8 -15 5 -3 9 1 9 9 0 8 -4 15 -9 15 -4 0 -8
-4 -8 -9z"/>
<path d="M1683 9483 c9 -2 14 -9 11 -15 -4 -7 -2 -8 5 -4 15 10 4 26 -17 25
-15 -1 -15 -2 1 -6z"/>
<path d="M1490 9419 c-23 -6 -23 -7 -3 -8 12 -1 27 -9 32 -18 10 -16 10 -15 8
4 -4 29 -7 31 -37 22z"/>
<path d="M1470 9389 c0 -5 5 -7 10 -4 6 3 10 8 10 11 0 2 -4 4 -10 4 -5 0 -10
-5 -10 -11z"/>
<path d="M1370 9360 c0 -5 7 -10 15 -10 8 0 15 5 15 10 0 6 -7 10 -15 10 -8 0
-15 -4 -15 -10z"/>
<path d="M1420 9336 c0 -2 7 -7 16 -10 8 -3 12 -2 9 4 -6 10 -25 14 -25 6z"/>
<path d="M1271 9283 c-9 -10 -8 -13 3 -13 8 0 18 5 21 10 4 6 11 8 16 5 5 -4
16 -2 25 3 12 6 7 9 -19 8 -19 -1 -40 -7 -46 -13z"/>
<path d="M8436 9244 c-10 -25 -1 -27 19 -4 15 17 16 20 3 20 -9 0 -19 -7 -22
-16z"/>
<path d="M1021 9127 c-6 -8 -8 -17 -4 -20 7 -8 33 11 33 24 0 13 -16 11 -29
-4z"/>
<path d="M8650 9127 c0 -7 4 -18 9 -25 6 -11 9 -9 14 7 3 12 -1 22 -9 25 -8 3
-14 0 -14 -7z"/>
<path d="M8620 9121 c0 -6 4 -13 10 -16 6 -3 7 1 4 9 -7 18 -14 21 -14 7z"/>
<path d="M8667 9078 c-13 -9 -13 -9 24 -12 14 -1 26 3 26 9 0 12 -32 14 -50 3z"/>
<path d="M949 9062 c11 -8 11 -10 0 -15 -10 -4 -8 -6 4 -6 21 -1 18 21 -4 27
-12 3 -12 2 0 -6z"/>
<path d="M8705 9030 c3 -5 8 -10 11 -10 2 0 4 5 4 10 0 6 -5 10 -11 10 -5 0
-7 -4 -4 -10z"/>
<path d="M8970 8909 c0 -8 32 -29 44 -29 15 0 3 16 -19 27 -14 6 -25 7 -25 2z"/>
<path d="M695 8899 c-9 -14 -2 -20 14 -10 8 6 9 11 3 15 -6 3 -14 1 -17 -5z"/>
<path d="M9031 8841 c-10 -6 -10 -10 -1 -16 13 -8 24 -1 19 14 -3 6 -10 7 -18
2z"/>
<path d="M445 8747 c-11 -9 -14 -16 -8 -20 6 -4 13 0 17 8 3 9 12 12 22 8 12
-4 15 -3 10 5 -9 15 -18 15 -41 -1z"/>
<path d="M391 8683 c-7 -8 -11 -16 -8 -19 2 -2 10 2 17 11 17 20 9 27 -9 8z"/>
<path d="M495 8690 c3 -5 8 -10 11 -10 2 0 4 5 4 10 0 6 -5 10 -11 10 -5 0 -7
-4 -4 -10z"/>
<path d="M280 8620 c-6 -11 -16 -17 -22 -14 -7 5 -8 2 -4 -5 5 -7 10 -10 13
-7 3 3 13 1 22 -4 13 -7 17 -3 19 15 2 32 -14 41 -28 15z"/>
<path d="M9328 8543 c7 -3 16 -2 19 1 4 3 -2 6 -13 5 -11 0 -14 -3 -6 -6z"/>
<path d="M206 8532 c-3 -6 -1 -14 5 -17 14 -9 20 -2 10 14 -6 8 -11 9 -15 3z"/>
<path d="M9410 8469 c0 -5 5 -7 10 -4 6 3 10 8 10 11 0 2 -4 4 -10 4 -5 0 -10
-5 -10 -11z"/>
<path d="M168 8443 c7 -3 16 -2 19 1 4 3 -2 6 -13 5 -11 0 -14 -3 -6 -6z"/>
<path d="M97 8403 c-4 -3 -7 -11 -7 -17 0 -6 5 -5 12 2 6 6 9 14 7 17 -3 3 -9
2 -12 -2z"/>
<path d="M2 8338 c-3 -37 7 -33 14 6 2 14 1 26 -4 26 -4 0 -9 -14 -10 -32z"/>
<path d="M9650 8297 c0 -19 16 -31 24 -18 3 5 -1 14 -9 21 -12 10 -15 10 -15
-3z"/>
<path d="M9681 8254 c0 -11 3 -14 6 -6 3 7 2 16 -1 19 -3 4 -6 -2 -5 -13z"/>
<path d="M9780 8210 c-13 -8 -12 -10 3 -10 9 0 17 5 17 10 0 12 -1 12 -20 0z"/>
<path d="M10127 7754 c-16 -16 -7 -35 14 -29 18 6 20 4 14 -14 -4 -13 -2 -21
5 -21 6 0 8 -5 4 -12 -4 -7 -3 -8 4 -4 6 4 8 14 5 23 -4 10 -2 14 4 10 6 -4
13 5 16 20 4 24 3 25 -7 11 -12 -16 -14 -16 -32 3 -11 11 -23 16 -27 13z"/>
<path d="M10226 7663 c-6 -14 -5 -15 5 -6 7 7 10 15 7 18 -3 3 -9 -2 -12 -12z"/>
<path d="M7650 7471 c-14 -5 -62 -27 -106 -49 -88 -44 -87 -43 -99 -144 -7
-54 -6 -57 16 -61 20 -3 20 -5 4 -6 -11 0 -58 -15 -105 -32 -47 -17 -96 -31
-110 -31 -14 0 -19 -3 -12 -5 8 -3 -11 -20 -44 -40 -89 -53 -166 -116 -233
-190 -37 -40 -56 -55 -47 -38 9 16 13 39 10 51 -4 16 0 26 15 34 14 7 21 7 21
0 0 -5 -4 -10 -9 -10 -5 0 -11 -7 -15 -15 -8 -23 12 -18 24 6 9 15 8 24 -1 35
-7 8 -8 14 -3 13 20 -3 35 2 29 10 -5 9 44 39 180 111 80 42 29 27 -60 -18
-219 -109 -403 -279 -490 -452 -62 -123 -87 -227 -92 -391 -4 -113 -2 -165 11
-229 45 -220 156 -416 296 -521 111 -84 280 -151 514 -203 59 -14 110 -27 112
-29 3 -2 2 -97 -2 -210 l-7 -206 -76 52 c-41 29 -119 96 -173 150 -54 53 -107
97 -116 97 -10 0 -70 -7 -132 -15 -81 -11 -119 -20 -131 -33 -25 -26 -298
-383 -302 -396 -6 -15 2 -26 -152 204 -346 514 -488 721 -492 716 -7 -6 13
-39 106 -174 41 -59 156 -228 255 -377 99 -148 182 -272 186 -275 8 -7 60 -89
60 -94 0 -3 11 -17 25 -32 14 -15 72 -97 128 -183 57 -86 139 -209 183 -274
123 -185 126 -189 122 -192 -2 -2 -247 -5 -545 -7 -536 -3 -542 -3 -552 17 -5
11 -16 29 -25 40 -9 11 -33 47 -54 80 -21 33 -70 107 -108 165 -38 58 -87 135
-109 172 -80 133 -100 164 -153 246 -30 45 -57 82 -60 82 -3 0 -15 -8 -26 -17
-20 -17 -20 -17 -6 2 40 52 87 91 97 80 21 -23 183 -257 183 -265 0 -5 6 -15
13 -22 23 -24 227 -353 227 -366 0 -5 21 -33 46 -62 l46 -54 422 3 c231 2 425
5 429 8 4 2 -8 26 -26 51 -19 26 -59 83 -89 127 -69 101 -186 271 -355 518
-192 279 -397 585 -424 635 -19 35 -28 43 -46 39 -13 -2 -23 -2 -23 0 0 5 41
65 50 73 3 3 6 19 8 35 2 17 8 34 13 40 15 15 10 55 -11 85 l-21 29 25 13 c13
7 71 78 128 158 57 80 164 228 238 330 284 391 557 777 584 823 38 65 31 77
-41 75 l-58 -2 53 -3 c49 -4 53 -6 46 -26 -10 -32 -56 -100 -268 -397 -104
-146 -237 -333 -296 -416 -59 -83 -138 -193 -176 -245 -38 -52 -94 -129 -124
-172 -30 -43 -62 -88 -72 -100 l-16 -22 5 27 c4 22 -3 37 -36 74 -40 46 -49
73 -13 41 24 -22 46 -22 38 -1 -4 11 11 41 44 86 27 37 50 71 50 75 0 4 26 40
58 81 31 42 66 90 77 108 11 17 38 58 60 91 51 74 57 83 51 83 -4 0 -156 -207
-230 -314 -16 -22 -32 -43 -35 -46 -4 -3 -23 -30 -43 -61 -42 -64 -66 -87 -76
-73 -4 6 -28 40 -54 76 -27 36 -48 71 -48 77 0 6 -4 11 -9 11 -17 0 -83 102
-78 121 3 11 1 19 -5 19 -14 0 -87 82 -88 98 0 7 -15 29 -32 48 -18 20 -32 42
-30 49 1 8 -2 16 -7 20 -10 5 4 36 69 150 12 22 31 51 41 64 11 13 19 30 19
38 0 8 5 11 10 8 6 -3 10 0 10 7 0 7 31 57 68 110 37 53 79 118 95 143 l27 47
163 -5 c89 -3 259 -6 377 -9 119 -2 221 -7 228 -11 8 -6 3 -23 -18 -62 -16
-29 -36 -62 -44 -72 -69 -84 -169 -233 -157 -233 5 0 11 6 14 13 3 6 42 60 88
119 46 59 113 147 149 197 36 50 69 90 73 91 5 0 5 -6 1 -12 -5 -10 -4 -10 6
-1 8 7 12 14 9 16 -2 3 -204 7 -449 11 l-445 6 -32 -47 c-17 -27 -66 -102
-108 -168 -204 -316 -217 -332 -253 -303 -7 6 -28 14 -46 17 l-34 6 157 238
c86 130 167 256 181 278 14 23 36 46 50 52 14 7 97 14 185 17 l160 6 -150 2
c-147 2 -152 1 -249 -33 -54 -19 -108 -41 -120 -48 -12 -8 -84 -113 -159 -232
-136 -215 -138 -218 -121 -242 9 -14 12 -23 6 -19 -5 3 -47 61 -93 128 -45 68
-136 198 -201 291 -117 165 -120 167 -156 167 -20 0 -244 5 -497 11 l-460 12
-80 -41 -80 -40 -129 -318 c-71 -176 -214 -528 -319 -784 -104 -256 -204 -503
-223 -550 -18 -49 -35 -79 -38 -70 -23 64 -288 770 -340 905 -36 94 -86 224
-111 290 -146 380 -249 626 -266 636 -24 12 -573 28 -994 29 l-321 0 -35 -42
c-69 -82 -75 -46 79 -423 77 -187 251 -608 387 -935 237 -570 546 -1315 710
-1713 43 -103 83 -194 89 -202 22 -31 134 -35 731 -30 325 4 605 8 623 11 18
3 32 11 32 19 0 9 9 12 28 9 64 -11 500 -14 782 -7 l304 8 105 145 c58 80 169
234 247 343 78 109 146 198 149 198 7 1 124 -178 366 -553 l67 -103 663 8
c365 5 668 13 673 17 5 5 -28 61 -73 126 -44 65 -79 120 -76 122 2 2 16 -5 32
-16 87 -61 296 -139 490 -184 l103 -23 0 -117 0 -117 33 -5 c144 -24 557 -34
682 -18 l50 7 -4 133 c-1 72 -1 132 2 132 2 0 42 7 88 15 218 38 430 150 569
302 160 174 242 380 256 643 14 259 -65 478 -232 646 -130 130 -267 207 -498
281 -78 25 -151 49 -163 54 -23 8 -23 11 -23 184 0 96 3 175 6 175 3 0 45 -36
92 -80 48 -44 93 -80 100 -80 18 0 189 47 237 66 57 22 425 441 425 484 0 37
-140 188 -254 272 -146 109 -343 186 -568 223 l-38 6 0 99 c0 54 -3 105 -6
114 -5 14 -37 16 -258 15 -138 0 -262 -4 -276 -8z m495 -13 c5 -17 14 -128 14
-197 1 -30 3 -52 7 -49 3 3 20 2 39 -2 22 -5 35 -4 38 3 2 8 18 8 53 -1 27 -7
55 -13 62 -14 6 -1 12 -4 12 -8 0 -4 26 -15 58 -25 103 -33 255 -105 319 -152
41 -30 79 -63 153 -130 26 -24 50 -40 54 -36 4 4 4 1 1 -8 -3 -9 8 -28 30 -49
41 -40 43 -52 11 -74 -14 -8 -69 -68 -124 -133 -55 -65 -129 -148 -164 -185
l-63 -68 -80 66 c-91 74 -217 150 -317 191 -74 30 -94 51 -26 27 108 -38 278
-136 353 -203 51 -46 73 -59 45 -27 -93 106 -415 276 -522 276 -13 0 -76 3
-140 6 -82 5 -118 3 -118 -4 0 -11 -70 -35 -78 -27 -3 3 1 7 9 9 40 13 42 14
17 15 -15 1 -30 -3 -33 -9 -3 -5 -15 -10 -26 -10 -10 0 -19 -3 -19 -7 0 -5
-14 -17 -30 -28 -17 -11 -38 -31 -47 -45 -14 -22 -12 -21 18 6 40 36 80 64 92
64 5 0 -17 -19 -49 -43 -33 -24 -65 -56 -73 -70 -9 -18 -17 -23 -22 -16 -12
20 -42 -37 -37 -71 3 -16 0 -30 -5 -30 -12 0 -1 -88 17 -132 25 -60 141 -158
186 -158 7 0 10 82 10 250 l0 250 30 0 c28 0 30 -2 23 -27 -4 -16 -7 -133 -7
-262 1 -260 -4 -242 74 -267 154 -49 194 -58 198 -46 3 9 8 8 17 -5 11 -15 13
-8 11 47 -1 36 2 73 6 82 5 10 4 19 -2 23 -13 8 -13 116 0 149 5 14 6 26 1 26
-4 0 -6 19 -5 43 4 58 4 51 1 159 -1 53 1 94 6 91 4 -2 7 -11 7 -19 0 -8 7
-14 16 -14 15 0 16 -30 13 -304 -5 -351 -16 -315 109 -347 167 -42 356 -125
461 -201 183 -132 295 -312 332 -532 11 -64 6 -266 -6 -287 -3 -4 -9 -27 -15
-51 -5 -24 -14 -63 -20 -88 -7 -25 -14 -56 -16 -69 -5 -25 -43 -109 -66 -146
-99 -158 -193 -246 -344 -323 -126 -64 -237 -100 -396 -127 l-38 -6 0 -122 c0
-67 -4 -128 -8 -135 -6 -9 -60 -13 -206 -16 -250 -4 -239 -11 -234 149 l3 109
-120 27 c-287 64 -476 159 -659 330 -48 45 -107 108 -132 140 l-45 59 93 118
c124 155 158 199 158 204 0 3 -6 5 -14 5 -8 0 -12 -7 -9 -16 4 -13 3 -13 -5
-2 -12 16 -27 -3 -16 -21 4 -6 3 -8 -3 -5 -6 4 -19 -3 -29 -16 l-19 -22 23 19
c33 29 26 6 -13 -39 -19 -22 -34 -34 -35 -26 0 16 -69 -58 -69 -74 0 -5 15 8
34 30 57 66 40 30 -22 -47 -32 -39 -59 -65 -61 -58 -3 7 -20 -3 -43 -26 l-38
-37 29 -38 c42 -52 37 -60 -5 -9 -19 23 -35 44 -35 47 0 3 27 35 61 71 61 67
284 337 327 395 12 17 22 25 22 18 0 -7 -15 -32 -32 -54 -18 -23 -32 -48 -31
-57 2 -10 0 -11 -3 -2 -5 10 -9 10 -20 1 -17 -14 -18 -28 -1 -25 21 3 38 18
34 30 -2 6 13 26 33 43 l37 33 52 -60 c100 -115 286 -246 420 -297 74 -28 172
-55 178 -50 2 2 6 142 10 311 6 283 8 306 24 306 16 0 17 -21 18 -312 1 -235
5 -314 14 -320 17 -11 209 -10 203 1 -3 4 6 6 21 3 19 -4 24 -2 18 8 -5 9 -2
10 14 5 l21 -6 0 275 c0 152 4 276 8 276 25 0 32 -61 32 -273 0 -122 3 -232 6
-244 l6 -23 30 23 c16 12 57 47 90 77 52 47 58 51 45 25 -15 -30 -56 -66 -112
-97 -16 -9 -25 -17 -20 -18 18 0 83 44 129 88 49 47 80 114 89 197 4 37 4 43
-3 25 -9 -23 -9 -23 -7 7 2 18 1 30 -3 28 -3 -2 -16 16 -29 41 -13 24 -28 44
-33 44 -5 0 0 -12 11 -27 11 -16 22 -39 25 -53 5 -19 2 -16 -13 10 -57 104
-195 186 -401 240 -523 135 -527 136 -620 178 -24 11 -48 18 -52 16 -4 -3 -8
-1 -8 4 0 4 -29 23 -63 41 -136 71 -275 216 -347 366 -27 55 -51 116 -54 135
-5 25 0 18 17 -25 13 -33 29 -69 36 -80 l13 -20 -7 20 c-4 11 -15 43 -25 70
-33 95 -43 182 -37 309 10 195 61 361 152 499 26 38 41 66 35 62 -19 -12 -95
-135 -118 -190 -20 -48 -41 -111 -61 -185 -6 -21 -10 -27 -10 -14 -1 26 22
107 61 211 61 162 215 328 388 417 97 50 154 69 260 90 116 22 150 26 150 15
0 -5 5 -9 10 -9 6 0 10 50 10 130 l0 130 230 0 c176 0 232 -3 235 -12z m-488
-155 c-2 -27 -3 -5 -3 47 0 52 1 74 3 48 2 -27 2 -69 0 -95z m-6037 -69 c322
-4 593 -6 602 -6 9 0 22 -6 28 -14 7 -7 16 -11 21 -8 5 3 6 -3 2 -12 -4 -12
-3 -15 5 -10 8 4 10 2 6 -8 -3 -8 4 -36 15 -63 39 -94 241 -622 370 -968 56
-148 108 -286 116 -305 90 -227 252 -734 243 -762 -2 -6 -23 38 -45 98 -23 60
-65 170 -93 244 -29 74 -59 156 -67 182 -9 26 -19 45 -23 43 -5 -3 -6 3 -3 14
3 11 -2 21 -11 24 -9 4 -16 12 -16 19 0 9 3 8 10 -2 11 -17 13 -10 4 14 -3 9
-10 14 -14 11 -5 -3 -6 5 -2 17 3 14 1 19 -6 14 -7 -4 -10 -2 -7 7 3 7 -69
207 -160 443 -308 797 -357 917 -367 903 -6 -10 -7 -6 -3 11 13 55 2 57 -270
64 -782 18 -875 19 -875 6 0 -8 13 -36 28 -64 16 -28 52 -110 82 -183 30 -76
57 -130 63 -126 6 3 7 1 3 -5 -10 -16 74 -213 87 -205 6 3 7 1 3 -6 -9 -15 3
-53 15 -46 5 3 6 0 4 -8 -3 -7 12 -51 33 -98 21 -46 58 -132 82 -191 24 -60
47 -105 53 -101 6 3 7 1 3 -6 -9 -15 3 -53 15 -46 5 3 6 -2 2 -11 -5 -13 -3
-15 7 -9 9 5 11 4 6 -4 -10 -16 3 -53 16 -45 7 5 8 2 4 -5 -10 -16 105 -292
118 -284 5 4 6 1 2 -6 -10 -16 13 -73 27 -64 6 3 7 1 3 -6 -11 -18 25 -105 37
-89 6 9 7 7 3 -6 -9 -26 35 -131 47 -114 5 9 6 6 3 -8 -4 -13 7 -49 29 -95 20
-41 33 -66 30 -56 -3 11 -1 15 6 12 5 -4 7 -15 4 -25 -7 -22 14 -71 28 -63 6
4 7 1 2 -6 -10 -17 24 -103 38 -94 6 4 8 0 4 -11 -9 -22 22 -98 36 -89 6 3 7
1 3 -6 -10 -15 85 -251 98 -244 5 4 6 1 2 -6 -10 -16 3 -53 16 -45 7 4 8 2 4
-5 -10 -16 24 -102 37 -94 6 3 7 1 3 -6 -9 -15 3 -53 15 -46 5 3 6 -2 2 -11
-5 -13 -3 -15 7 -9 9 5 11 4 6 -4 -10 -16 3 -53 16 -45 7 4 8 2 4 -5 -10 -16
3 -53 16 -45 7 5 9 1 5 -9 -8 -20 12 -79 24 -71 5 3 6 -1 4 -8 -4 -11 21 -80
82 -225 3 -7 10 -10 16 -6 6 4 8 0 4 -10 -7 -20 2 -49 13 -42 4 3 15 -6 24
-19 12 -18 12 -26 3 -29 -18 -8 247 -8 710 0 l413 6 11 36 c6 20 16 41 21 48
5 7 7 16 4 22 -8 13 15 62 25 55 9 -5 13 17 10 45 -2 8 2 10 10 5 9 -5 10 -2
6 10 -4 10 -3 15 3 11 6 -3 10 -4 10 -1 0 2 3 12 7 22 5 13 3 15 -8 9 -8 -4
-4 2 9 15 13 12 21 28 18 36 -3 8 -1 14 5 14 6 0 8 7 5 16 -3 8 -2 13 3 10 12
-8 31 41 25 61 -5 16 -4 16 6 3 10 -13 11 -11 7 8 -3 12 -2 20 3 17 11 -7 22
24 13 37 -3 6 -1 8 5 4 12 -7 48 80 44 108 -2 11 1 16 7 12 10 -7 16 7 12 28
-3 16 31 86 39 81 12 -7 93 182 85 196 -5 7 -4 10 2 6 13 -8 127 248 117 264
-4 7 -3 10 2 6 13 -7 127 240 118 255 -4 6 -3 8 3 5 13 -8 47 68 38 84 -6 8
-4 10 5 4 10 -6 12 -4 7 9 -5 11 -3 15 5 10 8 -5 9 -1 4 12 -4 10 -4 15 0 12
9 -10 45 64 39 80 -3 7 -1 11 4 8 12 -8 45 70 36 85 -5 7 -4 10 2 6 13 -8 107
198 97 214 -5 8 -3 10 6 4 10 -6 12 -4 7 9 -5 11 -3 15 5 10 8 -5 9 -2 5 10
-4 9 -3 15 2 12 4 -3 14 14 21 37 6 23 16 52 21 65 5 13 9 32 9 43 0 11 5 17
10 14 36 -22 -18 -192 -170 -530 -68 -153 -70 -157 -129 -295 -23 -52 -46
-104 -52 -114 -12 -21 -101 -221 -150 -339 -16 -38 -35 -81 -43 -95 -8 -15
-27 -54 -41 -87 -15 -33 -40 -87 -55 -120 -63 -135 -88 -195 -95 -224 -4 -17
-11 -31 -16 -31 -5 0 -9 -6 -9 -14 0 -8 -9 -31 -20 -53 -40 -80 -140 -307
-140 -320 0 -11 -90 -13 -477 -14 -263 0 -523 -3 -578 -5 -142 -6 -140 -6
-182 84 -35 78 -48 109 -143 347 -28 72 -57 144 -64 160 -19 42 -113 273 -153
375 -19 47 -38 94 -43 105 -16 33 -118 280 -186 450 -35 88 -70 174 -77 190
-27 57 -37 80 -58 135 -11 30 -27 69 -34 85 -23 51 -104 243 -160 380 -49 121
-164 394 -184 440 -5 11 -14 34 -19 50 -6 17 -34 84 -62 150 -28 66 -56 134
-62 150 -6 17 -28 63 -48 102 -34 67 -35 72 -16 68 12 -2 284 -7 606 -11z
m5897 -10 c-3 -3 -12 -4 -19 -1 -8 3 -5 6 6 6 11 1 17 -2 13 -5z m-3715 -156
c-28 -68 -103 -249 -167 -403 -64 -154 -146 -352 -181 -439 -62 -151 -93 -219
-94 -205 0 7 23 66 45 114 8 17 31 75 53 130 90 229 369 912 378 927 3 5 8 7
11 4 3 -2 -18 -60 -45 -128z m231 118 c37 -3 235 -8 440 -12 l372 -7 99 -141
c55 -78 176 -251 269 -386 94 -135 225 -321 291 -415 161 -226 346 -512 346
-533 0 -9 -10 -28 -21 -42 -11 -14 -38 -51 -59 -82 -25 -36 -48 -58 -62 -60
-16 -2 -41 -29 -79 -85 -30 -45 -85 -122 -121 -170 -35 -48 -172 -241 -303
-428 -214 -306 -523 -743 -532 -754 -1 -2 -5 -2 -7 0 -3 3 37 63 88 134 51 72
231 328 401 570 169 242 327 465 349 495 23 30 64 89 91 130 28 41 65 92 83
113 19 22 54 70 79 109 51 78 73 86 25 8 -17 -27 -30 -50 -28 -50 6 0 72 93
79 112 4 12 -40 85 -146 240 -159 232 -310 443 -384 538 -24 30 -118 165 -211
299 -92 134 -187 272 -212 305 l-45 61 -345 6 c-190 4 -401 8 -470 9 l-125 2
-78 -183 c-106 -250 -189 -448 -254 -609 -54 -132 -120 -292 -288 -695 -46
-110 -100 -242 -121 -293 -20 -51 -38 -91 -40 -89 -4 4 144 376 192 484 14 32
47 112 74 178 87 218 346 847 429 1042 44 106 81 197 81 203 0 6 15 8 38 5 20
-3 67 -7 105 -9z m-2073 -22 c96 -3 177 -8 179 -10 7 -7 -721 7 -879 16 -152
9 403 4 700 -6z m1960 -28 c0 -2 -44 -113 -99 -247 -411 -1015 -533 -1311
-538 -1306 -1 2 45 120 103 263 58 142 116 288 130 324 13 36 66 171 119 300
52 129 134 333 182 453 48 119 91 217 95 217 5 0 8 -2 8 -4z m448 -13 c-60 -2
-156 -2 -215 0 -60 1 -11 3 107 3 118 0 167 -2 108 -3z m-2008 -112 c-1 -13
-29 45 -29 59 0 8 6 0 14 -19 8 -18 15 -36 15 -40z m-18 -180 c33 -86 84 -219
113 -296 29 -77 69 -182 89 -233 20 -52 36 -97 36 -100 -1 -18 -27 44 -100
235 -105 278 -194 509 -214 557 -9 21 -16 41 -16 45 1 16 37 -65 92 -208z m38
134 c0 -5 -5 -3 -10 5 -5 8 -10 20 -10 25 0 6 5 3 10 -5 5 -8 10 -19 10 -25z
m20 -50 c0 -5 -5 -3 -10 5 -5 8 -10 20 -10 25 0 6 5 3 10 -5 5 -8 10 -19 10
-25z m3080 31 c0 -3 -4 -8 -10 -11 -5 -3 -10 -1 -10 4 0 6 5 11 10 11 6 0 10
-2 10 -4z m-3030 -153 c0 -2 -6 2 -14 9 -8 7 -13 14 -11 16 2 2 -3 19 -11 37
-23 57 -15 54 12 -4 13 -29 24 -55 24 -58z m2971 70 c-12 -20 -14 -14 -5 12 4
9 9 14 11 11 3 -2 0 -13 -6 -23z m-21 -13 c0 -5 -5 -10 -11 -10 -5 0 -7 5 -4
10 3 6 8 10 11 10 2 0 4 -4 4 -10z m-36 -55 c-4 -8 -10 -15 -15 -15 -4 0 -6 7
-3 15 4 8 10 15 15 15 4 0 6 -7 3 -15z m-2824 -235 c81 -207 160 -419 160
-426 0 -3 -4 -2 -10 1 -5 3 -10 13 -10 21 0 14 -26 83 -115 309 -67 169 -115
299 -114 310 0 12 0 12 89 -215z m5373 93 c-7 -2 -19 -2 -25 0 -7 3 -2 5 12 5
14 0 19 -2 13 -5z m1037 -17 c0 -2 -8 -10 -17 -17 -16 -13 -17 -12 -4 4 13 16
21 21 21 13z m-60 -70 c0 -2 -8 -10 -17 -17 -16 -13 -17 -12 -4 4 13 16 21 21
21 13z m-4291 -325 c224 -298 421 -568 421 -577 0 -15 -28 20 -136 169 -65 89
-171 227 -235 307 -64 80 -153 195 -198 255 -82 109 -102 133 -86 106 5 -10 4
-12 -4 -7 -6 4 -9 12 -6 17 4 5 -1 9 -10 9 -9 0 -14 4 -10 10 16 27 71 -33
264 -289z m4241 266 c0 -2 -17 -19 -37 -38 l-38 -34 34 38 c33 34 41 42 41 34z
m-7436 -23 c3 -8 2 -12 -4 -9 -6 3 -10 10 -10 16 0 14 7 11 14 -7z m6466 -189
c0 -117 -4 -185 -10 -185 -6 0 -10 63 -10 169 0 152 4 201 16 201 2 0 4 -83 4
-185z m-1073 143 c-3 -8 -6 -5 -6 6 -1 11 2 17 5 13 3 -3 4 -12 1 -19z m1300
-75 c-2 -16 -4 -3 -4 27 0 30 2 43 4 28 2 -16 2 -40 0 -55z m673 64 c0 -1 -24
-25 -52 -52 l-53 -50 50 53 c46 48 55 57 55 49z m-6110 -422 c33 -87 58 -160
56 -162 -2 -2 -8 9 -14 24 -6 15 -36 93 -66 172 -31 79 -56 146 -56 150 1 15
24 -37 80 -184z m60 80 c0 -5 -5 -3 -10 5 -5 8 -10 20 -10 25 0 6 5 3 10 -5 5
-8 10 -19 10 -25z m19 -55 c0 -10 -3 -8 -9 5 -12 27 -12 43 0 25 5 -8 9 -22 9
-30z m2861 -45 c17 -25 29 -45 26 -45 -3 0 -19 20 -36 45 -17 25 -29 45 -26
45 3 0 19 -20 36 -45z m-2841 -15 c0 -10 -3 -8 -9 5 -12 27 -12 43 0 25 5 -8
9 -22 9 -30z m566 -47 c-29 -54 -29 -49 0 20 11 26 21 43 23 38 2 -5 -9 -31
-23 -58z m1026 -9 c-16 -33 -30 -56 -31 -52 0 11 53 118 58 114 2 -2 -10 -30
-27 -62z m-1577 20 c3 -8 2 -12 -4 -9 -6 3 -10 10 -10 16 0 14 7 11 14 -7z
m1806 -141 c63 -76 120 -146 128 -155 12 -15 -3 -41 -145 -240 -229 -321 -425
-598 -682 -963 -123 -176 -222 -313 -219 -305 29 73 488 1112 693 1565 43 94
84 185 91 203 8 17 16 32 18 32 2 0 54 -62 116 -137z m-1287 52 c-3 -9 -8 -14
-10 -11 -3 3 -2 9 2 15 9 16 15 13 8 -4z m-559 -31 c3 -8 2 -12 -4 -9 -6 3
-10 10 -10 16 0 14 7 11 14 -7z m530 -43 c-9 -23 -18 -40 -20 -38 -2 2 4 22
13 45 9 23 18 40 20 38 2 -2 -4 -22 -13 -45z m1007 -38 c-12 -20 -14 -14 -5
12 4 9 9 14 11 11 3 -2 0 -13 -6 -23z m-1050 -64 c-11 -24 -20 -41 -20 -37 -1
12 31 89 35 85 3 -2 -4 -24 -15 -48z m1729 -72 c-40 -54 -50 -74 -28 -61 7 4
8 3 4 -5 -4 -6 -11 -9 -16 -6 -5 3 -18 -8 -29 -24 -24 -33 -27 -45 -8 -35 7 4
9 3 4 -2 -5 -5 -12 -9 -15 -9 -13 0 -32 -16 -32 -27 0 -6 7 -5 17 3 11 9 9 3
-6 -19 -12 -18 -26 -30 -31 -27 -5 3 -18 -8 -29 -24 -26 -36 -27 -48 -3 -30
15 13 16 12 3 -3 -7 -10 -17 -15 -21 -13 -5 3 -32 -30 -61 -72 -116 -174 -228
-335 -319 -458 -53 -71 -155 -213 -226 -315 -273 -388 -346 -485 -377 -501
-15 -8 -12 -2 9 17 32 29 104 127 348 474 71 102 179 253 240 335 61 83 176
247 256 365 190 282 340 490 351 490 5 0 -8 -24 -31 -53z m-1779 -54 c-12 -20
-14 -14 -5 12 4 9 9 14 11 11 3 -2 0 -13 -6 -23z m90 -24 c-11 -24 -20 -41
-20 -37 -1 12 31 89 35 85 3 -2 -4 -24 -15 -48z m-35 -86 c-8 -15 -15 -25 -16
-21 0 12 23 58 27 54 3 -2 -2 -17 -11 -33z m2445 14 c-10 -9 -11 -8 -5 6 3 10
9 15 12 12 3 -3 0 -11 -7 -18z m-2560 -54 c-12 -20 -14 -14 -5 12 4 9 9 14 11
11 3 -2 0 -13 -6 -23z m90 -20 c-12 -20 -14 -14 -5 12 4 9 9 14 11 11 3 -2 0
-13 -6 -23z m-110 -30 c-12 -20 -14 -14 -5 12 4 9 9 14 11 11 3 -2 0 -13 -6
-23z m90 -20 c-12 -20 -14 -14 -5 12 4 9 9 14 11 11 3 -2 0 -13 -6 -23z m2636
2 c0 -8 -4 -12 -9 -9 -5 3 -6 10 -3 15 9 13 12 11 12 -6z m-2728 -114 c-12
-28 -24 -50 -26 -48 -2 2 6 27 18 56 12 28 24 50 26 48 2 -2 -6 -27 -18 -56z
m2451 35 c0 -2 -8 -10 -17 -17 -16 -13 -17 -12 -4 4 13 16 21 21 21 13z m143
-39 c-3 -5 -9 -4 -13 3 -4 7 -13 10 -19 6 -7 -4 -9 -1 -5 8 5 12 10 13 24 4
10 -7 16 -16 13 -21z m-2562 -28 c-11 -24 -20 -41 -20 -37 -1 12 31 89 35 85
3 -2 -4 -24 -15 -48z m2380 14 c-6 -10 -22 -31 -36 -48 -20 -23 -19 -18 6 18
32 46 49 63 30 30z m439 -7 c0 -3 -4 -8 -10 -11 -5 -3 -10 -1 -10 4 0 6 5 11
10 11 6 0 10 -2 10 -4z m1917 -318 c-1 -62 -3 -14 -3 107 0 121 2 172 3 113 2
-59 2 -158 0 -220z m-2067 292 c0 -5 -5 -10 -11 -10 -5 0 -7 5 -4 10 3 6 8 10
11 10 2 0 4 -4 4 -10z m-2738 -32 c-7 -7 -12 -8 -12 -2 0 14 12 26 19 19 2 -3
-1 -11 -7 -17z m2898 12 c0 -5 -2 -10 -4 -10 -3 0 -8 5 -11 10 -3 6 -1 10 4
10 6 0 11 -4 11 -10z m-2869 -57 c-12 -20 -14 -14 -5 12 4 9 9 14 11 11 3 -2
0 -13 -6 -23z m882 -28 c-3 -9 -8 -14 -10 -11 -3 3 -2 9 2 15 9 16 15 13 8 -4z
m-902 -22 c-12 -20 -14 -14 -5 12 4 9 9 14 11 11 3 -2 0 -13 -6 -23z m870 -50
c-12 -20 -14 -14 -5 12 4 9 9 14 11 11 3 -2 0 -13 -6 -23z m1924 -53 c3 -5 1
-10 -4 -10 -6 0 -11 5 -11 10 0 6 2 10 4 10 3 0 8 -4 11 -10z m-1972 -55 c-3
-9 -8 -14 -10 -11 -3 3 -2 9 2 15 9 16 15 13 8 -4z m-32 -72 c-12 -20 -14 -14
-5 12 4 9 9 14 11 11 3 -2 0 -13 -6 -23z m1439 -41 c-8 -3 -28 -19 -43 -36
-26 -27 -25 -26 3 12 18 24 36 39 43 35 7 -4 6 -8 -3 -11z m910 4 c0 -3 -4 -8
-10 -11 -5 -3 -10 -1 -10 4 0 6 5 11 10 11 6 0 10 -2 10 -4z m1677 -72 c-3 -3
-12 -4 -19 -1 -8 3 -5 6 6 6 11 1 17 -2 13 -5z m-3537 -8 c0 -2 -8 -10 -17
-17 -16 -13 -17 -12 -4 4 13 16 21 21 21 13z m2416 -25 c-17 -18 -12 -24 131
-169 81 -82 173 -165 204 -185 83 -52 207 -118 248 -133 24 -9 29 -13 15 -14
-29 0 -201 89 -280 146 -36 25 -99 76 -139 113 -72 66 -205 213 -205 227 0 11
33 45 38 39 3 -3 -3 -13 -12 -24z m-1316 -85 c0 -6 9 -17 20 -24 11 -7 20 -19
20 -26 0 -8 6 -21 13 -28 28 -30 120 -178 110 -178 -4 0 2 -7 13 -15 10 -8 15
-15 9 -15 -7 0 -6 -3 0 -8 26 -18 64 -74 59 -86 -3 -8 0 -17 7 -22 8 -5 10 -3
5 7 -4 8 0 5 8 -5 9 -11 16 -30 16 -42 0 -11 15 -37 33 -57 60 -68 60 -65 21
-64 -18 1 -34 5 -34 9 0 8 16 12 34 9 5 -1 4 5 -4 13 -7 9 -19 16 -26 16 -8 0
-14 5 -14 11 0 5 -5 7 -11 4 -6 -4 -9 -1 -8 6 4 24 -13 71 -33 91 -10 10 -16
23 -13 27 3 5 -9 24 -26 42 -16 17 -28 38 -25 45 3 8 0 11 -9 8 -8 -3 -16 4
-20 18 -4 13 -11 25 -14 28 -18 14 -112 171 -114 189 -1 11 -7 23 -13 25 -11
4 -44 62 -44 75 1 11 40 -41 40 -53z m-1699 -19 c-10 -9 -11 -8 -5 6 3 10 9
15 12 12 3 -3 0 -11 -7 -18z m5069 -191 c0 -2 -8 -10 -17 -17 -16 -13 -17 -12
-4 4 13 16 21 21 21 13z m-3280 -37 c0 -5 -4 -9 -8 -9 -5 0 -9 7 -9 15 0 8 4
12 9 9 4 -3 8 -9 8 -15z m-3220 -54 c0 -5 -5 -3 -10 5 -5 8 -10 20 -10 25 0 6
5 3 10 -5 5 -8 10 -19 10 -25z m3265 15 c-1 -11 -5 -23 -10 -27 -4 -5 -5 -3
-1 4 3 6 2 14 -4 18 -6 4 -8 11 -5 16 10 16 22 10 20 -11z m40 -40 c3 -5 1
-10 -4 -10 -6 0 -11 5 -11 10 0 6 2 10 4 10 3 0 8 -4 11 -10z m-811 -62 c-81
-114 -100 -137 -113 -143 -8 -3 -187 -9 -398 -12 -284 -4 -383 -3 -383 6 0 8
78 11 283 13 155 0 332 2 392 3 l110 2 69 92 c73 97 103 126 40 39z m-2445
-33 c0 -5 -6 1 -14 15 -8 14 -14 30 -14 35 0 6 6 -1 14 -15 8 -14 14 -29 14
-35z m3624 8 c-13 -2 -35 -2 -50 0 -16 2 -5 4 22 4 28 0 40 -2 28 -4z m180 0
c-13 -2 -33 -2 -45 0 -13 2 -3 4 22 4 25 0 35 -2 23 -4z m90 0 c-7 -2 -19 -2
-25 0 -7 3 -2 5 12 5 14 0 19 -2 13 -5z m95 0 c-10 -2 -26 -2 -35 0 -10 3 -2
5 17 5 19 0 27 -2 18 -5z m80 0 c-10 -2 -28 -2 -40 0 -13 2 -5 4 17 4 22 1 32
-1 23 -4z m200 0 c-32 -2 -86 -2 -120 0 -35 2 -9 3 57 3 66 0 94 -1 63 -3z
m797 -21 c-3 -3 -11 0 -18 7 -9 10 -8 11 6 5 10 -3 15 -9 12 -12z m-1740 -3
c11 -16 1 -19 -13 -3 -7 8 -8 14 -3 14 5 0 13 -5 16 -11z m838 -6 c-111 -2
-295 -2 -410 0 -114 1 -23 2 202 2 226 0 319 -1 208 -2z m-3290 -50 c-13 -2
-33 -2 -45 0 -13 2 -3 4 22 4 25 0 35 -2 23 -4z m-665 -10 c-21 -2 -57 -2 -80
0 -24 2 -7 4 37 4 44 0 63 -2 43 -4z m956 -8 c-5 -13 -53 -15 -358 -13 l-351
3 345 2 c209 2 348 7 354 13 14 14 16 12 10 -5z m-736 -12 c-16 -2 -40 -2 -55
0 -16 2 -3 4 27 4 30 0 43 -2 28 -4z m1752 -49 c0 -2 -138 -3 -307 -2 l-308 3
270 5 c254 5 345 3 345 -6z m57 0 c-3 -3 -12 -4 -19 -1 -8 3 -5 6 6 6 11 1 17
-2 13 -5z"/>
<path d="M7746 7411 c-4 -6 -5 -60 -2 -119 2 -60 1 -113 -2 -119 -4 -5 -36
-15 -72 -21 l-65 -10 70 4 c47 2 63 1 50 -6 -11 -5 -33 -9 -48 -9 -42 -1 -181
-39 -268 -72 -148 -57 -291 -173 -379 -308 -56 -84 -66 -88 -20 -8 32 56 116
149 193 213 35 30 42 40 28 40 -11 0 -19 -3 -18 -6 3 -8 -159 -160 -165 -155
-3 3 -11 -3 -19 -12 -13 -16 -12 -17 4 -4 9 7 17 9 17 3 0 -11 -21 -30 -33
-30 -5 0 -12 -4 -15 -8 -4 -4 -1 -4 6 0 6 4 12 5 12 2 0 -12 -72 -136 -79
-136 -11 0 -46 -84 -57 -135 -1 -5 -7 -32 -14 -60 -16 -73 -25 -242 -13 -257
6 -7 13 -36 16 -63 11 -104 100 -282 195 -388 113 -124 348 -242 592 -297 203
-46 453 -126 562 -180 121 -60 180 -130 208 -248 15 -63 7 -129 -23 -192 -21
-45 -23 -52 -26 -70 0 -5 -8 -10 -16 -10 -8 0 -15 -7 -15 -15 0 -8 -6 -15 -14
-15 -8 0 -17 -7 -20 -15 -3 -9 -36 -30 -73 -46 -38 -17 -83 -38 -102 -47 -28
-14 -64 -17 -180 -17 -80 0 -162 3 -181 7 -19 5 -63 12 -96 18 -148 23 -370
145 -523 286 -48 45 -72 61 -69 48 2 -12 -2 -18 -10 -16 -8 1 -11 -2 -7 -7 6
-10 -99 -156 -132 -182 -15 -12 -16 -12 -10 4 9 24 0 21 -14 -4 -8 -17 -8 -20
1 -14 8 5 11 3 8 -6 -3 -8 -11 -14 -20 -14 -8 0 -27 -15 -43 -33 l-27 -32 37
-45 c20 -25 40 -43 45 -40 5 3 12 0 16 -6 4 -8 3 -9 -4 -5 -7 4 -12 3 -12 -2
0 -12 146 -136 210 -179 137 -93 346 -167 585 -210 53 -10 55 -16 56 -152 0
-69 3 -120 6 -113 3 9 43 12 151 12 81 0 152 4 159 8 8 5 13 48 15 132 3 144
-12 127 143 155 262 47 479 184 631 400 56 79 96 168 87 192 -4 11 -2 14 5 9
15 -9 21 19 42 194 9 78 6 238 -5 249 -3 2 -5 -7 -6 -20 0 -13 -10 10 -22 51
-24 82 -89 206 -105 203 -5 -1 -9 5 -8 15 0 9 -5 16 -12 14 -8 -1 -11 2 -7 9
10 14 -100 117 -187 175 -120 81 -295 150 -578 229 -372 104 -483 163 -549
294 -23 44 -30 89 -10 61 8 -12 9 -10 5 10 -3 14 -6 48 -7 75 -1 39 -3 45 -9
25 -6 -22 -8 -21 -11 15 -5 52 11 168 24 177 17 10 18 45 2 45 -11 0 -12 -5
-3 -20 8 -15 7 -18 -4 -11 -7 5 -25 9 -40 9 -20 0 -24 -3 -16 -12 6 -7 14 -11
18 -8 9 5 8 0 -4 -52 -8 -33 -26 -46 -26 -18 0 8 4 15 8 15 12 0 12 39 0 46
-7 4 -8 2 -4 -4 5 -8 0 -12 -13 -12 -12 0 -24 0 -28 -1 -13 -1 -43 -31 -43
-43 0 -6 5 -3 11 7 11 18 44 23 54 7 4 -6 -1 -7 -11 -3 -12 4 -15 3 -10 -5 4
-7 1 -15 -8 -18 -9 -3 -14 -10 -11 -14 7 -11 -48 -20 -59 -9 -6 6 -5 14 3 22
11 10 12 9 6 -2 -5 -10 -4 -12 4 -7 16 10 4 26 -20 26 -11 0 -17 -4 -14 -10 3
-5 1 -10 -5 -10 -6 0 -9 -4 -6 -9 9 -13 -73 -10 -84 4 -11 13 -50 9 -50 -5 0
-5 9 -6 20 -3 14 4 20 1 18 -8 -2 -8 2 -13 9 -12 6 1 17 -5 24 -13 10 -13 10
-17 -2 -25 -8 -4 -22 -6 -31 -3 -13 4 -16 1 -12 -9 3 -8 -2 -17 -11 -21 -15
-5 -15 -7 -1 -22 11 -10 13 -21 7 -32 -11 -20 -41 -25 -41 -7 0 19 17 28 23
13 4 -8 6 -7 6 4 1 9 -4 20 -10 23 -6 4 -8 14 -5 22 4 11 2 13 -9 9 -20 -7
-19 13 2 36 9 10 11 18 5 18 -7 0 -9 7 -5 17 5 12 1 11 -15 -5 -12 -12 -21
-27 -19 -34 1 -6 -6 -13 -15 -15 -12 -3 -15 1 -11 17 3 12 12 24 20 27 11 4
10 8 -4 19 -17 13 -17 13 2 14 11 0 27 5 35 11 11 7 5 8 -22 3 -33 -5 -38 -4
-38 12 0 14 -8 19 -33 21 -17 0 -26 -1 -19 -4 6 -2 12 -9 12 -14 0 -5 -6 -8
-12 -6 -7 1 -12 -4 -11 -10 2 -7 -2 -14 -7 -14 -6 -1 -15 -2 -22 -3 -6 0 -13
-7 -16 -15 -3 -9 1 -11 15 -7 18 6 20 3 16 -21 -4 -26 -3 -26 10 -10 18 22 24
21 36 -2 10 -17 7 -19 -24 -18 -20 1 -35 6 -35 13 0 24 -24 33 -45 17 -20 -15
-20 -15 3 -10 12 3 22 2 22 -3 0 -11 -30 -21 -41 -14 -5 3 -9 0 -9 -5 0 -6 7
-11 16 -11 9 0 13 -5 9 -12 -4 -7 1 -4 10 7 10 11 19 16 21 10 2 -6 27 -8 56
-7 50 4 52 3 36 -14 -16 -16 -16 -18 0 -30 16 -12 16 -14 -3 -28 -26 -19 -34
-11 -9 10 18 15 18 15 -4 9 -20 -6 -22 -4 -16 19 4 19 2 26 -9 26 -8 0 -17 -7
-20 -14 -4 -11 -1 -13 11 -9 14 5 15 4 4 -8 -11 -12 -15 -11 -27 4 -9 13 -14
15 -18 5 -2 -7 5 -18 17 -25 17 -10 18 -12 4 -13 -10 0 -27 10 -39 23 -17 17
-21 18 -16 5 4 -10 2 -18 -3 -18 -6 0 -10 5 -10 11 0 5 -4 8 -9 5 -5 -3 -7
-26 -5 -51 1 -25 -2 -45 -7 -45 -9 0 -14 24 -9 45 1 6 3 28 4 50 1 22 3 52 4
68 1 16 8 27 17 27 18 0 20 16 3 24 -7 3 -2 3 11 0 17 -4 22 -2 18 7 -2 8 -10
13 -16 12 -15 -4 -14 18 4 61 8 20 15 37 14 38 -1 4 40 80 71 131 17 29 25 35
32 25 8 -10 9 -9 5 4 -7 19 28 68 48 68 7 0 16 7 19 16 3 8 10 13 15 10 5 -3
8 2 7 11 0 9 5 18 13 21 9 3 11 0 6 -9 -5 -8 -4 -11 1 -6 5 5 9 13 9 19 0 15
53 53 62 44 4 -4 1 -11 -7 -16 -8 -6 -11 -10 -6 -10 4 0 25 18 46 40 22 23 51
43 69 46 17 4 28 11 24 17 -3 5 0 7 8 5 8 -3 37 1 64 9 28 7 70 18 95 23 25 5
53 12 63 15 13 6 16 3 11 -9 -3 -9 -1 -16 5 -16 6 0 11 5 11 10 0 6 10 10 23
10 18 0 19 -2 7 -10 -8 -5 -10 -10 -4 -10 6 0 17 6 23 14 7 8 23 13 37 10 20
-4 27 0 31 16 3 11 10 20 17 20 8 0 10 33 8 109 l-4 110 29 -3 c15 -2 31 1 34
7 12 17 42 -1 34 -21 -11 -28 -11 -34 3 -39 8 -3 10 1 5 13 -4 11 -2 15 4 11
6 -4 8 4 5 21 -5 25 -4 26 13 12 14 -11 19 -12 22 -2 8 22 35 14 31 -10 -2
-13 -8 -22 -13 -22 -6 1 -19 -7 -29 -17 -35 -34 2 -20 38 14 41 39 43 36 46
-56 1 -39 -4 -67 -14 -83 -14 -20 -14 -23 -1 -18 8 4 15 1 15 -5 0 -6 -6 -11
-12 -11 -10 0 -9 -3 1 -9 9 -6 10 -14 3 -27 -7 -14 -6 -22 3 -31 10 -10 14 -9
19 2 6 17 36 20 36 4 0 -5 4 -7 10 -4 5 3 7 0 4 -9 -3 -9 -12 -12 -22 -8 -15
5 -15 4 -3 -12 13 -16 16 -15 38 11 14 15 22 22 18 16 -3 -7 -2 -13 4 -13 5 0
16 -3 25 -6 10 -4 16 -1 16 9 0 9 5 19 12 23 8 5 9 0 6 -14 -4 -14 -2 -20 5
-15 6 4 8 0 4 -10 -3 -10 -2 -17 3 -17 6 0 10 11 10 25 0 14 5 25 11 25 6 0 9
-7 5 -15 -7 -18 5 -20 23 -2 11 10 13 8 8 -11 -4 -18 -2 -22 9 -18 15 6 19 -4
7 -20 -5 -5 -1 -2 8 8 16 16 29 15 29 -3 0 -17 -50 -42 -63 -31 -8 7 -17 6
-30 -3 -15 -11 -9 -13 43 -12 51 2 59 4 55 19 -3 9 -1 19 5 23 6 3 8 11 4 16
-10 16 30 6 43 -11 9 -12 8 -19 -4 -33 -9 -9 -14 -20 -11 -23 3 -3 15 6 26 20
18 24 21 24 33 9 8 -9 9 -14 3 -10 -6 3 -27 -11 -47 -33 -20 -22 -45 -40 -56
-40 -14 0 -21 -6 -21 -20 0 -11 -5 -20 -11 -20 -7 0 -9 10 -4 27 4 16 7 28 8
28 1 0 13 6 26 13 17 10 21 10 16 1 -5 -8 -4 -10 3 -5 7 4 12 18 12 32 0 13 4
24 8 24 5 0 9 7 9 15 0 8 -4 15 -8 15 -12 0 -24 -23 -21 -42 3 -15 -4 -18 -40
-18 -48 0 -89 -17 -95 -40 -4 -13 -3 -13 7 0 9 12 10 7 5 -20 -4 -19 -12 -39
-18 -45 -7 -7 -8 -4 -4 8 8 20 -8 23 -16 3 -4 -9 1 -17 12 -21 16 -5 17 -9 7
-30 -8 -19 -19 -25 -43 -25 -17 0 -34 6 -36 13 -4 10 -6 10 -6 0 -1 -15 -31
-18 -31 -4 0 5 -15 5 -36 1 -31 -7 -35 -6 -30 8 5 15 5 15 -6 2 -7 -9 -23 -15
-35 -14 -35 2 -194 -25 -212 -36 -11 -7 -4 -8 24 -3 22 4 52 8 68 8 15 0 27 4
27 8 0 5 43 6 96 2 53 -3 124 -6 157 -6 43 -1 56 -3 46 -11 -10 -7 -6 -8 14
-4 15 4 27 2 27 -4 0 -5 14 -8 30 -6 17 2 30 -1 30 -8 0 -12 141 -68 180 -71
14 -2 32 -5 40 -9 11 -4 34 11 72 50 35 35 58 52 63 45 3 -6 2 -10 -3 -9 -10
3 -102 -90 -102 -104 0 -4 9 -12 20 -18 11 -6 17 -16 14 -22 -4 -7 -3 -8 4 -4
11 7 85 -34 97 -54 14 -23 45 -6 99 55 32 36 62 62 68 59 7 -5 8 -2 4 5 -9 13
20 51 39 51 6 0 29 18 50 40 21 22 33 40 25 40 -7 0 -37 27 -67 59 -73 82
-161 146 -269 197 -98 47 -302 107 -401 119 -35 4 -60 11 -57 16 3 5 0 9 -5 9
-7 0 -11 42 -11 119 0 89 -3 120 -13 124 -7 3 -80 6 -161 6 -81 1 -153 4 -160
7 -8 3 -17 1 -20 -5z m274 -335 c0 -3 -4 -8 -10 -11 -5 -3 -10 -1 -10 4 0 6 5
11 10 11 6 0 10 -2 10 -4z m410 -111 c-10 -12 -10 -15 1 -15 8 -1 3 -8 -11
-16 -14 -8 -17 -13 -7 -10 12 4 17 2 15 -6 -3 -7 -13 -15 -23 -16 -15 -3 -17
1 -11 22 7 28 37 69 44 61 3 -3 -1 -11 -8 -20z m56 -39 c2 -15 2 -15 -3 0 -4
14 -7 14 -14 3 -7 -11 -9 -10 -9 4 0 23 24 17 26 -7z m-76 -34 c17 3 30 1 30
-4 0 -4 -7 -8 -15 -8 -9 0 -18 -7 -21 -15 -4 -8 -11 -15 -16 -15 -6 0 -8 6 -5
13 2 6 -1 17 -8 24 -10 9 -17 8 -31 -8 -9 -10 -12 -19 -6 -19 6 0 12 6 15 13
2 6 8 8 13 4 12 -12 -24 -37 -42 -30 -9 3 -12 0 -9 -8 6 -18 -4 -33 -33 -48
-12 -7 -20 -17 -16 -23 5 -7 2 -8 -6 -3 -7 4 -16 2 -21 -6 -7 -11 -9 -11 -9
-1 0 7 -4 10 -10 7 -5 -3 -7 0 -4 9 3 8 12 12 20 9 8 -3 14 1 14 11 0 10 5 13
17 9 11 -5 14 -3 8 6 -5 9 8 28 39 56 25 24 46 49 47 57 0 7 5 2 10 -11 7 -19
15 -22 39 -19z m120 28 c0 -5 -8 -10 -17 -10 -15 0 -16 2 -3 10 19 12 20 12
20 0z m-280 -15 c-7 -8 -22 -16 -34 -16 -19 -1 -19 -2 -2 -6 18 -5 18 -6 -5
-24 -20 -16 -21 -18 -4 -13 19 6 19 5 -2 -17 -30 -31 -35 -22 -19 31 12 41 30
58 65 59 11 1 11 -2 1 -14z m230 -16 c0 -6 -4 -7 -10 -4 -5 3 -10 11 -10 16 0
6 5 7 10 4 6 -3 10 -11 10 -16z m90 13 c0 -14 -40 -52 -55 -52 -7 0 -15 -5
-17 -12 -3 -8 -9 -8 -22 -1 -13 7 -15 13 -7 17 6 4 11 2 11 -4 0 -6 5 -8 10
-5 6 4 8 11 4 16 -3 5 -2 8 3 7 17 -4 53 14 53 28 0 8 5 14 10 14 6 0 10 -4
10 -8z m-45 -12 c-3 -5 -12 -10 -18 -10 -7 0 -6 4 3 10 19 12 23 12 15 0z m85
-13 c0 -2 -10 -12 -21 -23 -22 -19 -22 -19 -10 4 10 18 31 31 31 19z m-170
-37 c-10 -19 -30 -28 -30 -14 0 6 30 33 38 34 1 0 -2 -9 -8 -20z m-55 -10 c-3
-5 -17 -10 -31 -10 -14 0 -22 4 -19 10 3 6 17 10 31 10 14 0 22 -4 19 -10z
m128 -34 c-26 -24 -50 -42 -52 -40 -6 6 80 84 92 84 5 0 -13 -20 -40 -44z
m-278 24 c-3 -5 -11 -10 -16 -10 -6 0 -7 5 -4 10 3 6 11 10 16 10 6 0 7 -4 4
-10z m415 0 c0 -5 -6 -10 -14 -10 -7 0 -25 -11 -40 -25 -14 -13 -26 -19 -26
-12 0 7 17 22 38 34 44 26 42 26 42 13z m-175 -9 c3 -5 1 -12 -5 -16 -5 -3
-10 -2 -10 4 0 6 -7 7 -17 4 -11 -4 -14 -3 -9 5 9 14 33 16 41 3z m-79 -25
c-15 -13 -39 -37 -51 -52 l-23 -29 1 26 c1 15 7 25 13 22 6 -2 22 9 35 26 13
16 31 30 39 30 9 0 4 -9 -14 -23z m-200 -1 c-11 -8 -22 -12 -25 -9 -6 6 19 24
34 24 6 -1 1 -7 -9 -15z m114 -15 c-8 -5 -19 -10 -25 -10 -5 0 -3 5 5 10 8 5
20 10 25 10 6 0 3 -5 -5 -10z m124 -15 c-29 -22 -42 -17 -15 6 13 11 26 17 29
14 3 -3 -3 -12 -14 -20z m-238 6 c-4 -5 0 -12 6 -14 7 -3 1 -6 -14 -6 -31 -1
-38 15 -10 22 9 3 18 5 20 6 2 0 1 -3 -2 -8z m332 -18 c-10 -2 -18 -9 -18 -14
0 -5 -5 -9 -11 -9 -8 0 -8 5 1 15 7 8 20 14 29 14 13 -1 13 -2 -1 -6z m-168
-28 c-7 -9 -15 -13 -17 -11 -7 7 7 26 19 26 6 0 6 -6 -2 -15z m50 5 c0 -5 -4
-10 -10 -10 -5 0 -10 -7 -10 -16 0 -8 -4 -12 -10 -9 -6 4 -5 13 3 25 13 21 27
26 27 10z m42 -42 c-12 -13 -22 -17 -22 -11 0 6 7 19 16 28 9 9 19 13 22 10 3
-3 -4 -15 -16 -27z m179 10 c-4 -12 -14 -24 -20 -26 -8 -3 -7 5 4 22 21 32 27
33 16 4z m-1658 -40 c-15 -20 -43 -96 -63 -173 -11 -38 -19 -60 -19 -48 -2 47
73 253 86 239 3 -3 1 -11 -4 -18z m1442 2 c3 -6 -1 -7 -9 -4 -18 7 -21 14 -7
14 6 0 13 -4 16 -10z m155 -39 c0 -5 -7 -11 -14 -14 -10 -4 -13 -1 -9 9 6 15
23 19 23 5z m150 5 c0 -2 -8 -10 -17 -17 -16 -13 -17 -12 -4 4 13 16 21 21 21
13z m-60 -80 c0 -3 -4 -8 -10 -11 -5 -3 -10 -1 -10 4 0 6 5 11 10 11 6 0 10
-2 10 -4z m-1584 -38 c-4 -23 -3 -28 4 -18 7 12 12 12 22 2 9 -9 9 -12 0 -12
-7 0 -12 -9 -12 -20 0 -11 -4 -20 -9 -20 -5 0 -11 9 -14 20 -3 11 -12 20 -21
20 -23 0 -20 31 4 37 11 3 20 9 20 14 0 5 3 9 6 9 4 0 4 -15 0 -32z m384 -18
c0 -5 -5 -10 -11 -10 -5 0 -7 5 -4 10 3 6 8 10 11 10 2 0 4 -4 4 -10z m-38 -7
c-6 -2 -10 -9 -6 -14 3 -5 -4 -9 -15 -9 -12 0 -21 -4 -21 -9 0 -5 10 -7 22 -3
13 3 19 1 15 -5 -4 -6 1 -14 10 -17 14 -6 14 -8 -3 -21 -27 -21 -36 -18 -29 8
7 22 7 22 -9 2 -13 -16 -15 -17 -10 -2 3 9 1 17 -5 17 -6 0 -11 -6 -11 -14 0
-7 -7 -19 -15 -26 -21 -18 -19 -47 5 -53 20 -5 29 -37 10 -37 -5 0 -10 6 -10
13 0 17 -43 43 -48 28 -4 -13 -22 -15 -22 -2 0 5 9 13 21 16 15 5 17 10 9 20
-8 10 -8 15 1 21 8 4 9 3 5 -4 -4 -7 -3 -12 3 -12 6 0 15 9 21 20 6 11 8 20 5
20 -4 0 -3 6 2 13 4 6 8 19 8 27 0 9 9 15 22 15 11 0 25 3 29 8 4 4 12 7 18 6
6 0 5 -3 -2 -6z m-102 -12 c13 -1 13 -2 0 -11 -13 -8 -12 -10 3 -10 21 0 22
-7 3 -26 -16 -16 -30 -19 -21 -5 8 15 -15 25 -28 12 -8 -8 -8 -11 1 -11 16 0
15 -16 -5 -62 -10 -21 -24 -38 -32 -37 -11 0 -12 2 -3 6 6 2 12 8 12 13 0 11
-33 7 -42 -5 -4 -6 -8 -2 -8 9 0 13 5 17 19 13 13 -3 28 4 42 20 l23 24 -22 6
c-22 5 -31 23 -12 23 14 0 12 37 -2 43 -7 3 3 3 22 2 19 -2 42 -4 50 -4z m130
-21 c0 -5 -4 -10 -10 -10 -5 0 -10 5 -10 10 0 6 5 10 10 10 6 0 10 -4 10 -10z
m-325 -40 c-3 -5 2 -10 12 -10 10 0 14 -4 8 -8 -5 -4 -10 -13 -11 -19 -2 -28
-4 -33 -13 -33 -5 0 -11 7 -14 14 -4 10 -1 13 9 9 10 -4 12 0 8 11 -3 9 -13
16 -21 16 -13 0 -13 3 -3 15 14 17 35 21 25 5z m-240 -87 c-4 -35 -9 -62 -12
-60 -2 3 -1 38 3 79 4 40 9 67 12 60 2 -8 1 -43 -3 -79z m361 62 c-10 -8 -24
-11 -32 -8 -21 8 -10 18 22 20 26 1 27 0 10 -12z m124 -4 c0 -5 -7 -12 -16
-15 -14 -5 -15 -4 -4 9 14 17 20 19 20 6z m54 -5 c-3 -9 -13 -12 -27 -8 -21 6
-21 6 3 13 14 4 26 7 27 8 1 1 0 -5 -3 -13z m-456 -44 c9 -7 8 -14 -8 -32 -22
-25 -26 -20 -10 11 7 13 7 19 0 19 -5 0 -10 -5 -10 -12 0 -6 -3 -9 -6 -5 -7 7
4 27 14 27 4 0 13 -4 20 -8z m66 0 c2 -4 2 -13 -2 -18 -9 -14 -52 -25 -52 -13
0 5 6 9 14 9 8 0 18 5 22 12 4 7 3 8 -4 4 -7 -4 -12 -2 -12 3 0 13 26 15 34 3z
m66 -2 c0 -5 -4 -10 -10 -10 -5 0 -10 5 -10 10 0 6 5 10 10 10 6 0 10 -4 10
-10z m216 -9 c-4 -5 0 -11 6 -14 7 -2 10 -8 6 -12 -4 -4 -14 -2 -22 4 -8 7
-20 10 -26 6 -5 -3 -10 -2 -10 4 0 5 10 12 23 14 12 2 23 5 25 6 2 0 1 -3 -2
-8z m-246 -11 c0 -5 -4 -10 -10 -10 -5 0 -10 5 -10 10 0 6 5 10 10 10 6 0 10
-4 10 -10z m90 -10 c-6 -4 -11 -10 -11 -14 3 -19 0 -26 -10 -26 -6 0 -8 7 -5
15 4 10 -2 19 -17 26 -20 9 -20 9 6 6 15 -3 27 0 27 5 0 5 5 6 11 2 8 -5 8 -9
-1 -14z m242 -12 c-8 -8 -9 -4 -5 13 4 13 8 18 11 10 2 -7 -1 -18 -6 -23z
m-190 0 c-7 -7 -12 -8 -12 -2 0 14 12 26 19 19 2 -3 -1 -11 -7 -17z m-188 -13
c-4 -8 -8 -15 -10 -15 -2 0 -4 7 -4 15 0 8 4 15 10 15 5 0 7 -7 4 -15z m76 5
c0 -5 -5 -10 -11 -10 -5 0 -7 5 -4 10 3 6 8 10 11 10 2 0 4 -4 4 -10z m200 6
c0 -3 -4 -8 -10 -11 -5 -3 -10 -1 -10 4 0 6 5 11 10 11 6 0 10 -2 10 -4z m54
-4 c2 -4 -7 -8 -22 -9 -24 -2 -24 -1 -7 7 11 5 21 9 22 9 1 1 4 -3 7 -7z
m-104 -23 c0 -6 -9 -7 -20 -4 -12 4 -20 2 -20 -5 0 -7 -7 -9 -16 -6 -22 8 -40
-4 -23 -15 11 -7 10 -9 -3 -9 -10 0 -18 6 -18 14 0 16 27 29 41 20 5 -3 9 -1
9 5 0 10 30 20 43 14 4 -2 7 -9 7 -14z m180 17 c0 -3 -4 -8 -10 -11 -5 -3 -10
-1 -10 4 0 6 5 11 10 11 6 0 10 -2 10 -4z m-443 -20 c0 -11 -5 -13 -19 -5 -27
14 -36 4 -31 -36 2 -21 -1 -35 -7 -35 -6 0 -8 -5 -4 -12 4 -7 3 -8 -5 -4 -14
9 -12 88 3 98 20 14 63 9 63 -6z m113 0 c0 -3 -4 -8 -10 -11 -5 -3 -10 -1 -10
4 0 6 5 11 10 11 6 0 10 -2 10 -4z m260 0 c0 -2 -7 -7 -16 -10 -8 -3 -12 -2
-9 4 6 10 25 14 25 6z m-293 -12 c-3 -3 -12 -4 -19 -1 -8 3 -5 6 6 6 11 1 17
-2 13 -5z m217 -6 c-5 -8 -2 -9 10 -5 9 4 15 3 11 -2 -3 -5 1 -11 7 -14 7 -2
10 -8 6 -12 -4 -4 -14 0 -23 9 -9 9 -24 16 -33 17 -14 0 -13 2 3 9 27 12 27
12 19 -2z m-305 -35 c-15 -18 -2 -32 24 -28 21 4 21 4 3 -10 -11 -8 -23 -15
-27 -15 -11 0 -20 32 -14 51 4 11 2 19 -4 19 -6 0 -11 5 -11 10 0 6 8 5 19 -2
15 -9 17 -16 10 -25z m256 27 c-3 -5 -11 -10 -16 -10 -6 0 -7 5 -4 10 3 6 11
10 16 10 6 0 7 -4 4 -10z m139 -20 c-17 -33 -27 -40 -17 -12 6 17 23 42 28 42
2 0 -3 -13 -11 -30z m-324 0 c-14 -4 -32 -8 -40 -9 -13 -1 -13 0 0 9 8 5 26 9
40 9 l25 -1 -25 -8z m65 0 c3 -5 2 -10 -4 -10 -5 0 -13 5 -16 10 -3 6 -2 10 4
10 5 0 13 -4 16 -10z m89 -5 c3 -8 1 -15 -4 -15 -6 0 -10 7 -10 15 0 8 2 15 4
15 2 0 6 -7 10 -15z m56 5 c0 -5 -5 -10 -11 -10 -5 0 -7 5 -4 10 3 6 8 10 11
10 2 0 4 -4 4 -10z m-185 -32 c-11 -6 -25 -19 -32 -27 -7 -9 -13 -12 -13 -7 0
16 32 46 49 46 12 -1 12 -3 -4 -12z m50 2 c3 -5 -1 -10 -10 -10 -9 0 -13 5
-10 10 3 6 8 10 10 10 2 0 7 -4 10 -10z m190 0 c3 -5 1 -10 -4 -10 -6 0 -11 5
-11 10 0 6 2 10 4 10 3 0 8 -4 11 -10z m115 6 c0 -3 -4 -8 -10 -11 -5 -3 -10
-1 -10 4 0 6 5 11 10 11 6 0 10 -2 10 -4z m-210 -10 c0 -3 -4 -8 -10 -11 -5
-3 -10 -1 -10 4 0 6 5 11 10 11 6 0 10 -2 10 -4z m56 -10 c18 5 18 5 1 -6 -20
-13 -47 -7 -47 11 0 9 3 9 14 0 7 -6 22 -9 32 -5z m-158 -23 c-14 -17 -28 -16
-28 1 0 8 9 14 19 13 15 -1 17 -4 9 -14z m-221 -25 c-3 -7 -5 -2 -5 12 0 14 2
19 5 13 2 -7 2 -19 0 -25z m53 11 c0 -5 -7 -9 -15 -9 -8 0 -15 7 -15 15 0 9 6
12 15 9 8 -4 15 -10 15 -15z m270 11 c0 -5 -5 -10 -11 -10 -5 0 -7 5 -4 10 3
6 8 10 11 10 2 0 4 -4 4 -10z m127 4 c-3 -3 -12 -4 -19 -1 -8 3 -5 6 6 6 11 1
17 -2 13 -5z m-47 -12 c0 -4 -9 -15 -20 -25 -11 -9 -20 -12 -20 -7 0 6 7 13
15 16 8 4 12 10 9 15 -3 5 0 9 5 9 6 0 11 -3 11 -8z m-310 -6 c0 -2 -7 -7 -16
-10 -8 -3 -12 -2 -9 4 6 10 25 14 25 6z m-40 -31 c0 -8 -4 -15 -10 -15 -5 0
-10 7 -10 15 0 8 5 15 10 15 6 0 10 -7 10 -15z m48 -36 c-3 -8 -7 -3 -11 10
-4 17 -3 21 5 13 5 -5 8 -16 6 -23z m102 17 c0 -3 -4 -8 -10 -11 -5 -3 -10 -1
-10 4 0 6 5 11 10 11 6 0 10 -2 10 -4z m50 -11 c-7 -9 -15 -13 -17 -11 -7 7 7
26 19 26 6 0 6 -6 -2 -15z m-113 -11 c-3 -3 -12 -4 -19 -1 -8 3 -5 6 6 6 11 1
17 -2 13 -5z m-57 -13 c0 -9 -20 -37 -20 -29 0 3 -2 13 -5 21 -4 8 0 14 10 14
8 0 15 -3 15 -6z m53 -36 c-3 -9 -8 -14 -10 -11 -3 3 -2 9 2 15 9 16 15 13 8
-4z m125 -10 c-3 -3 -9 2 -12 12 -6 14 -5 15 5 6 7 -7 10 -15 7 -18z m-106
-176 c29 -35 44 -57 34 -49 -30 24 -102 122 -130 177 -39 77 -31 79 10 2 19
-37 58 -95 86 -130z m158 -63 c0 -2 -9 -6 -20 -9 -11 -3 -18 -1 -14 4 5 9 34
13 34 5z m1680 -296 c6 -11 8 -20 6 -20 -3 0 -10 9 -16 20 -6 11 -8 20 -6 20
3 0 10 -9 16 -20z m-1815 -577 c-18 -28 -120 -154 -164 -202 -40 -44 0 9 69
94 37 44 75 92 84 108 10 15 21 27 23 27 3 0 -3 -12 -12 -27z m-179 -185 c-25
-34 -30 -49 -20 -57 5 -3 16 -15 24 -26 8 -11 0 -7 -18 9 -33 31 -33 30 7 79
21 25 26 21 7 -5z m1937 -109 c-118 -190 -425 -356 -693 -374 l-75 -4 93 14
c134 21 204 41 317 95 155 73 298 190 368 303 10 15 20 27 22 27 3 0 -12 -27
-32 -61z"/>
<path d="M7955 7250 c-16 -17 -16 -20 -3 -15 9 4 19 13 22 21 7 19 2 18 -19
-6z"/>
<path d="M7807 7200 c-3 -11 -1 -20 4 -20 5 0 9 9 9 20 0 11 -2 20 -4 20 -2 0
-6 -9 -9 -20z"/>
<path d="M7936 7167 c3 -10 9 -15 12 -12 3 3 0 11 -7 18 -10 9 -11 8 -5 -6z"/>
<path d="M8138 7153 c7 -3 16 -2 19 1 4 3 -2 6 -13 5 -11 0 -14 -3 -6 -6z"/>
<path d="M7310 7130 c-19 -11 -30 -19 -25 -19 6 0 26 8 45 19 19 11 31 19 25
19 -5 0 -26 -8 -45 -19z"/>
<path d="M7540 7132 c0 -5 14 -7 30 -4 17 2 30 6 30 8 0 2 -13 4 -30 4 -16 0
-30 -4 -30 -8z"/>
<path d="M8310 7121 c121 -29 139 -32 79 -12 -31 11 -78 22 -105 25 -38 5 -33
2 26 -13z"/>
<path d="M7470 7121 c-18 -5 -21 -8 -10 -12 8 -3 29 0 45 7 22 9 24 13 10 13
-11 -1 -31 -4 -45 -8z"/>
<path d="M7402 7101 c-10 -6 -9 -10 7 -14 12 -3 19 -1 16 3 -3 5 1 11 7 13 9
4 8 6 -2 6 -8 0 -21 -3 -28 -8z"/>
<path d="M7950 7085 c0 -14 2 -25 4 -25 2 0 6 11 8 25 3 14 1 25 -3 25 -5 0
-9 -11 -9 -25z"/>
<path d="M7308 7053 c10 -4 8 -9 -5 -19 -14 -12 -11 -11 15 1 17 8 32 17 32
18 0 1 -12 3 -28 3 -15 1 -21 -1 -14 -3z"/>
<path d="M7139 7023 c-13 -16 -12 -17 4 -4 9 7 17 15 17 17 0 8 -8 3 -21 -13z"/>
<path d="M7766 7032 c-3 -5 1 -9 9 -9 8 0 12 4 9 9 -3 4 -7 8 -9 8 -2 0 -6 -4
-9 -8z"/>
<path d="M7060 6955 c-29 -30 -52 -56 -49 -58 2 -1 28 23 58 55 69 73 63 76
-9 3z"/>
<path d="M7973 7003 c9 -2 23 -2 30 0 6 3 -1 5 -18 5 -16 0 -22 -2 -12 -5z"/>
<path d="M8640 7006 c0 -3 9 -10 20 -16 11 -6 20 -8 20 -6 0 3 -9 10 -20 16
-11 6 -20 8 -20 6z"/>
<path d="M8020 6985 c-8 -9 -8 -15 -2 -15 12 0 26 19 19 26 -2 2 -10 -2 -17
-11z"/>
<path d="M8050 6980 c0 -5 7 -7 15 -4 8 4 15 8 15 10 0 2 -7 4 -15 4 -8 0 -15
-4 -15 -10z"/>
<path d="M8165 6980 c-3 -6 1 -7 9 -4 18 7 21 14 7 14 -6 0 -13 -4 -16 -10z"/>
<path d="M7330 6970 c0 -5 9 -10 21 -10 11 0 17 5 14 10 -3 6 -13 10 -21 10
-8 0 -14 -4 -14 -10z"/>
<path d="M7568 6973 c7 -3 16 -2 19 1 4 3 -2 6 -13 5 -11 0 -14 -3 -6 -6z"/>
<path d="M7807 6959 c-22 -11 -37 -22 -35 -24 6 -6 78 28 78 37 0 10 2 11 -43
-13z"/>
<path d="M7960 6970 c0 -5 7 -7 15 -4 8 4 15 8 15 10 0 2 -7 4 -15 4 -8 0 -15
-4 -15 -10z"/>
<path d="M8690 6977 c0 -2 15 -14 33 -27 20 -15 27 -17 18 -6 -13 16 -51 41
-51 33z"/>
<path d="M7528 6963 c7 -3 16 -2 19 1 4 3 -2 6 -13 5 -11 0 -14 -3 -6 -6z"/>
<path d="M7668 6963 c7 -3 16 -2 19 1 4 3 -2 6 -13 5 -11 0 -14 -3 -6 -6z"/>
<path d="M8085 6950 c-7 -20 -25 -28 -25 -10 0 6 -7 10 -15 10 -9 0 -12 -6 -8
-17 5 -12 2 -15 -13 -11 -11 3 -25 -1 -32 -8 -19 -20 -14 -25 11 -13 47 25 54
27 68 18 11 -7 11 -9 -3 -9 -10 0 -18 -7 -18 -16 0 -10 -6 -14 -15 -10 -8 3
-14 0 -12 -6 1 -6 -11 -18 -28 -27 -16 -9 -35 -22 -43 -28 -11 -11 -11 -13 2
-13 9 0 16 4 16 8 0 4 10 9 23 9 33 2 55 8 64 18 4 4 -2 5 -14 2 -32 -7 -29 1
15 40 20 18 33 33 28 33 -5 0 -1 9 8 19 10 11 13 21 7 25 -5 4 -12 -3 -16 -14z"/>
<path d="M7310 6951 c0 -6 4 -13 10 -16 6 -3 7 1 4 9 -7 18 -14 21 -14 7z"/>
<path d="M8126 6953 c5 -5 12 -12 15 -16 3 -5 9 -2 12 7 5 12 0 16 -15 16 -12
0 -17 -3 -12 -7z"/>
<path d="M7872 6934 c-14 -16 -5 -18 17 -5 7 5 9 11 5 14 -5 3 -15 -1 -22 -9z"/>
<path d="M7970 6932 c0 -4 -14 -13 -32 -20 -17 -6 -29 -15 -25 -18 4 -4 13 -1
21 5 8 7 19 10 24 8 4 -3 13 3 20 14 7 11 8 19 2 19 -5 0 -10 -4 -10 -8z"/>
<path d="M8105 6931 c-3 -5 -1 -12 5 -16 5 -3 10 1 10 9 0 18 -6 21 -15 7z"/>
<path d="M7829 6903 c-13 -16 -12 -17 4 -4 9 7 17 15 17 17 0 8 -8 3 -21 -13z"/>
<path d="M7480 6900 c-9 -6 -10 -10 -3 -10 6 0 15 5 18 10 8 12 4 12 -15 0z"/>
<path d="M7725 6900 c-16 -7 -17 -9 -3 -9 9 -1 20 4 23 9 7 11 7 11 -20 0z"/>
<path d="M7376 6891 c-4 -5 3 -7 14 -4 23 6 26 13 6 13 -8 0 -17 -4 -20 -9z"/>
<path d="M7630 6885 c-7 -9 -8 -15 0 -20 5 -3 10 -2 10 4 0 5 8 11 18 13 16 3
16 4 0 10 -9 4 -21 1 -28 -7z"/>
<path d="M8087 6893 c-4 -3 -7 -11 -7 -17 0 -6 5 -5 12 2 6 6 9 14 7 17 -3 3
-9 2 -12 -2z"/>
<path d="M7440 6879 c0 -5 5 -7 10 -4 6 3 10 8 10 11 0 2 -4 4 -10 4 -5 0 -10
-5 -10 -11z"/>
<path d="M7515 6880 c-3 -5 -1 -10 4 -10 6 0 11 5 11 10 0 6 -2 10 -4 10 -3 0
-8 -4 -11 -10z"/>
<path d="M7910 6855 c-32 -33 -35 -34 -52 -18 -10 9 -16 23 -14 30 3 7 1 13
-4 13 -13 0 -13 -27 0 -35 16 -10 12 -23 -9 -30 -14 -4 -17 -12 -13 -28 3 -12
7 -16 10 -9 3 9 8 10 17 2 9 -8 12 -4 9 15 -2 21 1 25 16 20 22 -7 100 58 83
68 -5 3 -25 -9 -43 -28z"/>
<path d="M8110 6880 c0 -5 5 -10 11 -10 5 0 7 5 4 10 -3 6 -8 10 -11 10 -2 0
-4 -4 -4 -10z"/>
<path d="M7676 6863 c-6 -14 -5 -15 5 -6 7 7 10 15 7 18 -3 3 -9 -2 -12 -12z"/>
<path d="M7777 6850 c-3 -11 -1 -20 4 -20 5 0 9 9 9 20 0 11 -2 20 -4 20 -2 0
-6 -9 -9 -20z"/>
<path d="M7865 6860 c-3 -5 -2 -10 4 -10 5 0 13 5 16 10 3 6 2 10 -4 10 -5 0
-13 -4 -16 -10z"/>
<path d="M8830 6866 c0 -2 8 -10 18 -17 15 -13 16 -12 3 4 -13 16 -21 21 -21
13z"/>
<path d="M8110 6849 c0 -5 -4 -8 -9 -5 -5 3 -12 -1 -15 -10 -3 -8 -11 -12 -17
-8 -8 4 -9 3 -5 -4 4 -8 0 -12 -11 -12 -10 0 -27 -7 -37 -15 -23 -17 -14 -20
15 -5 10 6 19 7 19 2 0 -4 8 -8 18 -8 9 -1 26 -5 36 -9 14 -6 17 -5 12 3 -4 8
-2 10 7 6 8 -3 17 2 21 11 3 9 2 13 -4 10 -6 -3 -10 -2 -10 3 0 6 -10 8 -22 6
-13 -2 -17 -2 -10 2 17 8 36 44 22 44 -5 0 -10 -5 -10 -11z"/>
<path d="M7715 6840 c-3 -5 -1 -10 4 -10 6 0 11 5 11 10 0 6 -2 10 -4 10 -3 0
-8 -4 -11 -10z"/>
<path d="M7401 6824 c0 -11 3 -14 6 -6 3 7 2 16 -1 19 -3 4 -6 -2 -5 -13z"/>
<path d="M7647 6827 c-4 -10 4 -13 26 -13 19 1 31 -4 30 -10 -1 -7 6 -10 17
-7 11 3 20 10 20 15 0 5 -4 6 -10 3 -5 -3 -20 1 -32 9 -27 20 -44 20 -51 3z"/>
<path d="M7525 6821 c-3 -5 -2 -12 3 -15 5 -3 9 1 9 9 0 17 -3 19 -12 6z"/>
<path d="M8877 6805 c19 -25 50 -45 37 -23 -15 23 -39 48 -47 48 -4 0 0 -11
10 -25z"/>
<path d="M7459 6803 c-13 -16 -12 -17 3 -5 9 8 23 10 29 6 8 -4 9 -3 5 4 -10
17 -21 15 -37 -5z"/>
<path d="M7605 6799 c-4 -6 -5 -12 -2 -15 2 -3 7 2 10 11 7 17 1 20 -8 4z"/>
<path d="M7670 6795 c-7 -9 -10 -18 -7 -21 15 -15 -17 -63 -54 -79 -21 -10
-39 -22 -39 -27 0 -13 13 -9 40 12 14 11 30 20 37 20 11 0 29 55 25 74 -2 4 3
14 9 22 6 8 9 14 6 14 -2 0 -10 -7 -17 -15z"/>
<path d="M7121 6784 c0 -11 3 -14 6 -6 3 7 2 16 -1 19 -3 4 -6 -2 -5 -13z"/>
<path d="M7776 6793 c5 -5 12 -12 16 -18 4 -6 8 -2 8 8 0 9 -7 17 -17 17 -9 0
-12 -3 -7 -7z"/>
<path d="M7870 6790 c0 -5 11 -10 24 -10 14 0 28 5 31 10 4 6 -7 10 -24 10
-17 0 -31 -4 -31 -10z"/>
<path d="M7305 6780 l-30 -8 27 -1 c15 0 30 4 33 9 3 6 5 9 3 9 -2 -1 -16 -5
-33 -9z"/>
<path d="M7370 6781 c0 -6 4 -13 10 -16 6 -3 7 1 4 9 -7 18 -14 21 -14 7z"/>
<path d="M7473 6783 c-7 -3 -13 -10 -13 -16 0 -8 3 -8 11 0 6 6 18 9 25 6 8
-3 14 -3 14 0 0 8 -24 14 -37 10z"/>
<path d="M7533 6774 c-3 -9 3 -24 15 -35 12 -11 20 -16 17 -13 -3 4 0 13 6 20
8 9 5 11 -10 7 -16 -4 -19 -1 -14 16 6 24 -5 29 -14 5z"/>
<path d="M7206 6764 c-10 -25 1 -29 14 -5 6 12 7 21 1 21 -5 0 -12 -7 -15 -16z"/>
<path d="M7710 6766 c0 -2 9 -6 20 -9 11 -3 20 -1 20 4 0 5 -9 9 -20 9 -11 0
-20 -2 -20 -4z"/>
<path d="M7086 6745 c-9 -26 -7 -32 5 -12 6 10 9 21 6 23 -2 3 -7 -2 -11 -11z"/>
<path d="M7250 6749 c0 -5 5 -7 10 -4 6 3 10 8 10 11 0 2 -4 4 -10 4 -5 0 -10
-5 -10 -11z"/>
<path d="M7410 6737 c-7 -12 -13 -24 -12 -27 0 -3 -9 -8 -20 -13 -12 -4 -19
-10 -16 -12 11 -11 38 8 53 38 18 36 15 45 -5 14z"/>
<path d="M7110 6741 c0 -6 4 -13 10 -16 6 -3 7 1 4 9 -7 18 -14 21 -14 7z"/>
<path d="M7500 6739 c0 -5 5 -7 10 -4 6 3 10 8 10 11 0 2 -4 4 -10 4 -5 0 -10
-5 -10 -11z"/>
<path d="M6960 6719 c-7 -11 -10 -23 -7 -25 2 -2 9 7 15 21 14 30 7 33 -8 4z"/>
<path d="M7265 6730 c-3 -6 1 -7 9 -4 18 7 21 14 7 14 -6 0 -13 -4 -16 -10z"/>
<path d="M7434 6721 c4 -6 2 -19 -5 -27 -9 -12 -10 -17 0 -27 10 -9 11 -8 5 7
-4 12 -4 17 2 13 6 -3 10 3 11 13 1 11 -3 23 -9 26 -7 4 -8 2 -4 -5z"/>
<path d="M7470 6720 c0 -5 5 -10 10 -10 6 0 10 5 10 10 0 6 -4 10 -10 10 -5 0
-10 -4 -10 -10z"/>
<path d="M7513 6716 c-10 -11 -9 -15 2 -20 8 -3 15 -4 15 -2 0 3 3 11 6 20 7
19 -7 20 -23 2z"/>
<path d="M7090 6669 c-40 -36 -41 -39 -14 -25 17 8 34 12 38 9 3 -4 6 -1 6 7
0 9 4 10 13 2 10 -8 13 -6 13 7 0 12 -6 17 -16 14 -10 -3 -9 1 4 11 11 9 16
16 10 16 -5 -1 -29 -19 -54 -41z"/>
<path d="M7298 6694 c17 -11 26 -12 39 -4 16 10 15 11 -4 7 -13 -3 -26 -1 -29
4 -3 5 -10 9 -17 9 -6 0 -1 -7 11 -16z"/>
<path d="M7040 6691 c0 -6 5 -13 10 -16 6 -3 10 1 10 9 0 9 -4 16 -10 16 -5 0
-10 -4 -10 -9z"/>
<path d="M7174 6683 c15 -4 16 -7 5 -15 -12 -8 -12 -9 0 -6 25 7 24 28 -1 27
-19 -1 -20 -2 -4 -6z"/>
<path d="M7275 6669 c-4 -6 -13 -8 -21 -5 -8 3 -14 -1 -14 -8 0 -11 8 -11 40
-3 25 7 35 14 27 19 -16 11 -25 10 -32 -3z"/>
<path d="M7485 6660 c-7 -21 -25 -28 -25 -8 0 6 -14 -8 -31 -31 -22 -31 -36
-41 -52 -39 -13 2 -22 10 -21 19 1 12 -5 14 -24 11 l-24 -5 26 -16 c14 -8 26
-19 26 -23 0 -16 58 15 70 36 10 19 24 25 66 31 30 3 56 11 59 16 4 5 -2 6
-11 2 -13 -5 -16 -3 -11 10 3 9 2 17 -3 17 -6 0 -10 -6 -10 -14 0 -8 -7 -17
-16 -20 -12 -4 -14 -1 -9 14 4 11 4 20 1 20 -2 0 -8 -9 -11 -20z"/>
<path d="M7030 6661 c0 -7 -4 -9 -10 -6 -6 4 -7 -1 -3 -11 6 -15 7 -15 15 1 6
9 7 19 4 22 -3 4 -6 1 -6 -6z"/>
<path d="M7210 6655 c-7 -9 -8 -15 -2 -15 5 0 12 7 16 15 3 8 4 15 2 15 -2 0
-9 -7 -16 -15z"/>
<path d="M7378 6663 c7 -3 16 -2 19 1 4 3 -2 6 -13 5 -11 0 -14 -3 -6 -6z"/>
<path d="M7149 6636 c-13 -7 -31 -11 -39 -8 -12 3 -12 2 -2 -6 11 -8 11 -10
-2 -15 -8 -3 -17 -1 -20 6 -3 7 -3 2 0 -10 7 -28 -9 -30 -34 -3 -19 20 -19 20
-17 -2 3 -38 36 -39 81 -2 42 35 64 43 64 22 0 -6 3 -9 6 -5 3 3 2 12 -3 21
-7 13 -12 14 -34 2z"/>
<path d="M7408 6643 c7 -3 16 -2 19 1 4 3 -2 6 -13 5 -11 0 -14 -3 -6 -6z"/>
<path d="M7280 6630 c-8 -5 -28 -10 -45 -10 -25 -1 -27 -2 -13 -11 13 -7 29
-5 60 10 24 11 36 20 28 20 -8 0 -22 -4 -30 -9z"/>
<path d="M7000 6604 c0 -8 5 -12 10 -9 6 3 10 10 10 16 0 5 -4 9 -10 9 -5 0
-10 -7 -10 -16z"/>
<path d="M7282 6601 c-11 -6 -10 -10 5 -15 17 -7 17 -8 -1 -22 -11 -7 -17 -17
-13 -21 4 -3 16 2 28 13 18 16 19 20 5 30 -9 6 -13 14 -9 17 9 10 1 8 -15 -2z"/>
<path d="M7180 6589 c0 -5 5 -7 10 -4 6 3 10 8 10 11 0 2 -4 4 -10 4 -5 0 -10
-5 -10 -11z"/>
<path d="M7123 6583 c4 -3 -1 -12 -11 -20 -15 -13 -15 -13 5 -3 29 14 38 30
17 30 -10 0 -14 -3 -11 -7z"/>
<path d="M7006 6573 c-9 -9 -7 -33 3 -33 12 0 22 28 12 34 -5 3 -11 3 -15 -1z"/>
<path d="M7208 6573 c7 -3 16 -2 19 1 4 3 -2 6 -13 5 -11 0 -14 -3 -6 -6z"/>
<path d="M7166 6554 c-9 -24 -2 -26 12 -4 7 11 8 20 3 20 -5 0 -12 -7 -15 -16z"/>
<path d="M6976 6545 c-3 -8 -1 -15 4 -15 6 0 10 7 10 15 0 8 -2 15 -4 15 -2 0
-6 -7 -10 -15z"/>
<path d="M7130 6539 c0 -5 5 -7 10 -4 6 3 10 8 10 11 0 2 -4 4 -10 4 -5 0 -10
-5 -10 -11z"/>
<path d="M7185 6539 c-4 -6 -5 -12 -2 -15 2 -3 7 2 10 11 7 17 1 20 -8 4z"/>
<path d="M7326 6543 c-25 -6 -51 -32 -42 -41 4 -3 11 0 16 7 4 8 21 20 37 27
28 13 24 16 -11 7z"/>
<path d="M7597 6536 c-3 -8 -2 -18 3 -21 13 -8 20 9 11 24 -6 10 -10 9 -14 -3z"/>
<path d="M7215 6531 c-9 -16 35 -35 49 -21 8 9 7 11 -4 10 -28 -4 -41 0 -35
10 3 6 4 10 1 10 -3 0 -7 -4 -11 -9z"/>
<path d="M7783 6360 c0 -36 2 -50 4 -32 2 17 2 47 0 65 -2 17 -4 3 -4 -33z"/>
<path d="M8123 6205 c0 -27 2 -38 4 -22 2 15 2 37 0 50 -2 12 -4 0 -4 -28z"/>
<path d="M6890 5870 c6 -11 13 -20 16 -20 2 0 0 9 -6 20 -6 11 -13 20 -16 20
-2 0 0 -9 6 -20z"/>
<path d="M6900 4878 c-12 -22 -12 -22 6 -6 10 10 15 20 12 24 -4 3 -12 -5 -18
-18z"/>
<path d="M7200 4891 c0 -5 7 -12 16 -15 14 -5 15 -4 4 9 -14 17 -20 19 -20 6z"/>
<path d="M6790 4745 c-13 -14 -21 -27 -18 -30 2 -3 15 6 28 20 13 14 21 27 18
30 -2 3 -15 -6 -28 -20z"/>
<path d="M7873 3893 c37 -2 97 -2 135 0 37 2 6 3 -68 3 -74 0 -105 -1 -67 -3z"/>
<path d="M3812 4715 c-17 -37 -14 -45 4 -12 9 16 14 31 11 33 -2 2 -9 -7 -15
-21z"/>
<path d="M2458 3993 c7 -3 16 -2 19 1 4 3 -2 6 -13 5 -11 0 -14 -3 -6 -6z"/>
<path d="M2498 3993 c6 -2 18 -2 25 0 6 3 1 5 -13 5 -14 0 -19 -2 -12 -5z"/>
<path d="M4817 5413 c-4 -3 -7 -11 -7 -17 0 -6 5 -5 12 2 6 6 9 14 7 17 -3 3
-9 2 -12 -2z"/>
<path d="M6218 7163 c61 -2 163 -2 225 0 61 1 11 3 -113 3 -124 0 -174 -2
-112 -3z"/>
<path d="M6688 7153 c7 -3 16 -2 19 1 4 3 -2 6 -13 5 -11 0 -14 -3 -6 -6z"/>
<path d="M6559 6883 c-13 -16 -12 -17 4 -4 9 7 17 15 17 17 0 8 -8 3 -21 -13z"/>
<path d="M6514 6823 c-15 -20 -23 -33 -16 -29 13 8 56 66 49 66 -3 0 -17 -17
-33 -37z"/>
<path d="M6451 6733 c-19 -27 -25 -40 -15 -31 18 16 59 78 51 78 -2 0 -18 -21
-36 -47z"/>
<path d="M6384 6643 c-15 -20 -23 -33 -16 -29 13 8 56 66 49 66 -3 0 -17 -17
-33 -37z"/>
<path d="M6339 6583 c-13 -16 -12 -17 4 -4 9 7 17 15 17 17 0 8 -8 3 -21 -13z"/>
<path d="M6256 6533 c-3 -7 1 -13 8 -13 8 0 16 6 19 13 3 8 -1 14 -9 14 -7 0
-15 -6 -18 -14z"/>
<path d="M6245 6500 c-4 -6 -10 -8 -15 -5 -5 3 -12 0 -16 -6 -4 -7 -3 -9 4 -5
5 3 12 0 14 -6 3 -8 9 -4 17 10 11 22 8 32 -4 12z"/>
<path d="M6259 6473 c-13 -16 -12 -17 4 -4 9 7 17 15 17 17 0 8 -8 3 -21 -13z"/>
<path d="M6209 6403 c-13 -16 -12 -17 4 -4 16 13 21 21 13 21 -2 0 -10 -8 -17
-17z"/>
<path d="M6076 6223 c-6 -14 -5 -15 5 -6 7 7 10 15 7 18 -3 3 -9 -2 -12 -12z"/>
<path d="M6049 6183 c-13 -16 -12 -17 4 -4 16 13 21 21 13 21 -2 0 -10 -8 -17
-17z"/>
<path d="M8508 3610 c-48 -26 -75 -62 -93 -124 -35 -123 23 -195 208 -256 104
-34 126 -89 51 -125 -45 -21 -85 -14 -144 25 -25 16 -50 30 -57 30 -14 0 -83
-82 -83 -98 0 -19 77 -69 132 -88 63 -20 177 -15 228 11 81 41 121 100 122
179 1 102 -40 142 -195 196 -89 31 -103 39 -112 64 -8 24 -6 31 14 47 32 26
88 24 147 -6 27 -14 54 -25 59 -25 6 0 28 16 50 35 l40 35 -47 44 c-26 24 -69
51 -95 60 -66 23 -178 20 -225 -4z m79 -10 c-16 -5 -44 -20 -63 -35 -19 -14
-34 -24 -34 -21 0 13 85 66 104 65 17 -1 15 -3 -7 -9z m100 -536 c-3 -3 -12
-4 -19 -1 -8 3 -5 6 6 6 11 1 17 -2 13 -5z"/>
<path d="M7909 3603 c-5 -35 4 -640 10 -646 4 -4 103 -4 220 -1 l212 7 -3 66
-3 66 -147 -4 -148 -4 0 67 0 66 103 1 c56 1 116 4 132 8 29 6 30 8 30 61 l0
55 -133 3 -133 3 3 62 3 62 145 5 145 5 0 60 0 60 -217 3 c-120 1 -219 -1
-219 -5z m174 -20 c-24 -2 -62 -2 -85 0 -24 2 -5 4 42 4 47 0 66 -2 43 -4z
m95 0 c-10 -2 -26 -2 -35 0 -10 3 -2 5 17 5 19 0 27 -2 18 -5z m65 0 c-7 -2
-19 -2 -25 0 -7 3 -2 5 12 5 14 0 19 -2 13 -5z m0 -260 c-34 -2 -93 -2 -130 0
-37 2 -9 3 62 3 72 0 102 -1 68 -3z m46 -252 c8 -6 -35 -9 -110 -8 l-124 1
105 6 c58 3 107 7 110 8 3 1 11 -2 19 -7z"/>
<path d="M7143 3584 c-60 -22 -137 -95 -169 -160 -36 -74 -45 -214 -19 -298
47 -149 209 -231 387 -196 68 13 140 46 176 80 22 20 22 27 20 153 l-3 132
-135 0 -135 0 -3 -43 c-4 -61 8 -72 74 -65 l54 6 0 -55 0 -55 -39 -11 c-80
-25 -167 -6 -213 45 -67 74 -62 210 10 286 40 42 75 57 135 57 44 0 62 -5 95
-30 23 -16 48 -30 56 -30 7 0 33 18 57 39 l44 39 -25 26 c-13 15 -53 41 -88
58 -55 27 -78 32 -151 35 -59 2 -99 -2 -128 -13z m97 -18 c-36 -7 -80 -20 -97
-29 -18 -10 -33 -15 -33 -13 0 7 58 37 90 47 14 4 43 7 65 7 33 0 29 -2 -25
-12z m-140 -50 c0 -2 -8 -10 -17 -17 -16 -13 -17 -12 -4 4 13 16 21 21 21 13z
m419 -240 c-5 -5 -197 -9 -214 -5 -5 2 40 5 100 8 108 6 123 5 114 -3z m-112
-223 c-20 -20 -163 -32 -191 -16 -10 5 9 7 52 5 42 -2 82 2 107 11 22 8 42 15
45 16 2 0 -4 -7 -13 -16z"/>
<path d="M7652 3273 l3 -328 65 3 c36 2 67 6 70 9 7 7 12 593 5 621 -5 20 -11
22 -75 22 l-70 0 2 -327z"/>
<path d="M6590 3581 l-155 -6 -3 -328 c-2 -276 0 -328 12 -333 8 -3 110 -2
228 3 l213 8 3 44 c2 25 1 55 -3 69 l-6 24 -147 -3 -147 -4 -3 67 -3 67 138 3
138 3 3 34 c2 19 1 44 -2 57 -6 24 -8 24 -142 24 l-135 0 3 68 3 67 148 3 148
3 -3 67 -3 67 -65 1 c-36 0 -135 -2 -220 -5z m272 -19 c-7 -5 -99 -9 -205 -9
-134 0 -165 2 -102 6 156 10 321 12 307 3z m-27 -273 c-4 -5 -64 -8 -138 -7
-101 1 -117 3 -67 7 114 10 211 10 205 0z m34 -253 c-11 -9 -289 -15 -289 -6
0 6 57 10 147 10 80 0 144 -2 142 -4z"/>
<path d="M5913 3573 l-93 -4 0 -63 c0 -76 0 -76 116 -76 l84 0 0 -265 0 -266
73 3 72 3 3 267 2 267 98 3 97 3 3 44 c2 25 1 55 -3 68 l-5 23 -178 -2 c-97
-1 -219 -4 -269 -5z m372 -22 c-103 -10 -434 -11 -405 -2 14 5 126 8 250 8
129 0 195 -3 155 -6z"/>
<path d="M5536 3561 l-68 -6 -34 -95 c-59 -162 -194 -561 -194 -571 0 -6 32
-9 73 -7 l72 3 24 68 23 67 119 2 c66 0 124 1 131 2 6 1 23 -28 38 -64 l26
-65 65 -3 c107 -4 119 -61 -108 533 -51 133 -58 146 -82 143 -9 -1 -47 -4 -85
-7z m104 -21 c0 -6 -30 -10 -70 -10 -40 0 -70 4 -70 10 0 6 30 10 70 10 40 0
70 -4 70 -10z m-32 -270 c45 -122 48 -117 -67 -119 -56 -1 -62 1 -56 17 14 35
75 207 75 211 0 13 13 -15 48 -109z m57 -140 c-3 -6 -49 -10 -101 -10 -61 0
-93 4 -89 10 3 6 49 10 101 10 61 0 93 -4 89 -10z"/>
<path d="M4730 3551 l-75 -6 -3 -265 c-2 -146 0 -298 3 -338 l7 -73 71 3 72 3
3 103 3 102 57 0 57 0 54 -87 c79 -125 79 -125 154 -117 34 3 65 9 69 13 4 3
-22 55 -57 115 l-63 109 29 28 c46 43 69 103 69 184 0 110 -39 174 -125 211
-45 18 -200 26 -325 15z m287 -20 c21 -6 47 -17 58 -26 18 -13 16 -13 -17 0
-28 11 -80 15 -210 15 -97 0 -167 4 -160 9 20 12 284 14 329 2z m-46 -121 c93
-26 73 -180 -23 -180 -18 0 -57 -3 -85 -6 l-53 -7 0 102 0 101 63 0 c34 0 78
-5 98 -10z m34 -202 c-26 -16 -214 -24 -200 -9 6 5 53 12 105 14 52 1 100 4
105 5 6 1 1 -4 -10 -10z"/>
<path d="M3624 3527 c-125 -60 -168 -203 -93 -306 33 -46 82 -74 166 -96 113
-29 140 -53 121 -104 -13 -36 -38 -50 -90 -51 -55 0 -89 11 -141 47 -35 24
-38 25 -56 9 -10 -9 -29 -37 -42 -62 l-23 -46 24 -20 c58 -46 132 -72 220 -76
81 -4 88 -2 150 30 86 45 120 93 127 179 4 54 1 71 -19 109 -30 56 -101 101
-196 124 -88 22 -112 39 -112 76 0 36 40 70 83 70 17 0 61 -14 99 -32 78 -35
84 -33 126 41 l22 39 -27 20 c-71 50 -117 66 -203 69 -74 4 -92 1 -136 -20z
m251 -17 c22 -9 46 -24 53 -32 8 -10 -7 -6 -39 9 -79 38 -165 41 -254 8 -18
-7 -18 -6 2 9 51 38 157 41 238 6z m-130 -255 c77 -20 152 -51 162 -68 4 -7 0
-8 -13 -2 -10 5 -66 25 -123 44 -61 21 -106 42 -109 51 -2 10 -1 11 5 4 4 -6
40 -19 78 -29z m-135 -272 c38 -20 74 -29 129 -33 l76 -6 -47 -8 c-25 -4 -61
-5 -80 -1 -38 9 -124 50 -133 65 -9 15 -2 13 55 -17z"/>
<path d="M4024 3536 c-3 -7 -4 -40 -2 -72 l3 -59 100 0 100 0 3 -278 2 -278
78 3 77 3 3 277 2 277 93 3 92 3 3 68 3 67 -276 0 c-223 0 -277 -3 -281 -14z
m544 -11 c-2 -2 -117 -6 -255 -10 -174 -4 -253 -3 -253 4 0 7 83 12 248 13
226 3 269 2 260 -7z"/>
<path d="M3235 3500 c-12 -19 -41 -70 -65 -112 -24 -43 -46 -75 -49 -72 -3 3
-33 51 -66 107 l-61 102 -77 3 c-62 2 -78 0 -83 -12 -6 -15 66 -141 159 -279
l38 -58 -107 -171 c-59 -94 -107 -178 -108 -187 -1 -10 7 -16 22 -15 12 0 48
1 81 2 l58 2 67 115 c37 63 71 117 76 120 5 3 39 -46 77 -110 l68 -114 78 -1
c60 0 79 3 83 15 4 9 -30 71 -83 152 -49 76 -98 152 -108 169 l-18 31 97 162
c54 89 96 167 93 174 -2 8 -28 12 -77 12 -72 0 -73 0 -95 -35z m155 10 c0 -6
-25 -10 -57 -9 -42 0 -52 3 -38 9 28 12 95 12 95 0z m-420 -10 c-20 -13 -87
-13 -95 0 -4 6 16 10 52 10 41 0 54 -3 43 -10z m165 -230 c3 -5 2 -10 -4 -10
-5 0 -13 5 -16 10 -3 6 -2 10 4 10 5 0 13 -4 16 -10z"/>
<path d="M2379 3516 c-111 -31 -210 -112 -260 -213 -21 -42 -24 -62 -24 -163
0 -106 2 -119 28 -168 54 -103 141 -164 260 -184 167 -28 340 59 412 207 57
116 40 294 -39 397 -84 109 -241 161 -377 124z m186 -19 c58 -18 96 -41 134
-81 44 -46 35 -46 -18 -2 -79 66 -206 94 -300 66 -25 -7 -32 -7 -24 1 27 27
144 36 208 16z m17 -162 c88 -63 114 -180 62 -284 -34 -67 -86 -103 -159 -109
-77 -6 -120 4 -162 41 -121 106 -84 313 67 376 14 6 53 10 87 8 50 -2 71 -9
105 -32z m-108 -419 c46 0 71 -3 60 -7 -43 -17 -138 -9 -191 16 -29 13 -53 29
-53 35 0 5 24 -2 53 -17 44 -24 63 -28 131 -27z"/>
<path d="M1926 3488 c-13 -21 -120 -311 -162 -440 -11 -32 -21 -58 -24 -58 -3
0 -41 98 -84 218 -44 119 -86 234 -94 255 l-14 37 -73 0 c-41 0 -76 -4 -80 -9
-3 -5 38 -126 91 -268 52 -142 111 -302 131 -355 l36 -98 71 0 c39 0 76 4 82
8 13 8 284 692 284 716 0 13 -12 16 -75 16 -66 0 -76 -2 -89 -22z m141 -5
c-12 -11 -117 -15 -117 -4 0 7 25 11 62 11 34 0 58 -3 55 -7z m-537 -11 c0 -4
-17 -6 -37 -4 -65 6 -70 10 -15 11 28 0 52 -3 52 -7z m220 -537 c0 -9 -6 -12
-16 -8 -13 5 -13 7 -2 14 17 11 18 11 18 -6z"/>
<path d="M6787 2504 c-3 -3 -404 -16 -544 -18 -62 0 -113 -3 -113 -6 0 -3 -44
-6 -98 -7 -234 -5 -476 -13 -510 -18 -20 -3 -75 -8 -122 -11 -135 -8 -261 -18
-360 -29 -36 -4 -79 -8 -96 -9 -17 -2 -36 -6 -41 -9 -14 -9 -136 -19 -243 -21
-52 0 -101 -5 -109 -10 -10 -7 -12 -6 -6 4 5 9 4 11 -4 6 -15 -10 -82 -16 -77
-7 3 4 -8 6 -22 5 -15 -1 -27 -3 -27 -4 0 -1 -31 -4 -70 -7 -38 -2 -75 -9 -81
-14 -6 -5 -14 -6 -18 -2 -3 4 -15 8 -26 10 -13 2 -18 -2 -14 -11 7 -18 39 -27
52 -14 6 6 12 6 16 0 3 -5 22 -6 43 -2 21 3 50 3 66 -1 15 -4 27 -4 27 -1 0 4
62 7 138 7 223 1 1155 16 1203 20 24 2 184 6 354 10 171 4 348 8 395 10 47 2
186 6 310 9 292 8 522 16 585 21 28 2 138 7 245 10 199 6 235 8 375 24 44 5
82 9 85 9 30 -2 60 4 60 13 0 5 -5 7 -10 4 -6 -4 -17 -2 -24 4 -12 10 -46 14
-276 27 -100 6 -1058 13 -1063 8z"/>
<path d="M4165 2340 c-3 -5 -1 -10 4 -10 6 0 11 5 11 10 0 6 -2 10 -4 10 -3 0
-8 -4 -11 -10z"/>
<path d="M2136 2332 c-2 -2 -65 -5 -140 -6 -75 -1 -138 -5 -141 -7 -2 -3 -29
-2 -59 1 -30 3 -63 3 -73 -1 -10 -4 -24 -2 -30 3 -9 7 -13 7 -13 -2 0 -8 -10
-11 -30 -8 -16 2 -31 0 -33 -6 -3 -8 -9 -7 -19 1 -8 7 -17 11 -19 8 -6 -6
-145 -18 -182 -16 -18 1 -26 -3 -22 -9 4 -7 -2 -9 -18 -5 -14 4 -28 2 -31 -4
-4 -5 -13 -8 -21 -4 -11 4 -13 1 -8 -13 4 -12 3 -15 -5 -10 -7 4 -12 3 -12 -2
0 -6 -10 -8 -22 -5 -23 5 -23 5 -3 -12 17 -14 18 -16 2 -11 -11 4 -16 2 -12
-5 4 -5 12 -8 18 -6 7 2 22 0 34 -4 12 -5 25 -4 28 1 3 5 18 5 33 1 58 -17
356 -20 736 -8 137 4 265 10 285 12 20 2 104 7 186 10 159 7 233 11 330 19 33
3 94 8 135 11 41 3 99 10 127 16 29 6 57 8 63 4 5 -3 10 -2 10 3 0 5 14 8 30
7 22 -1 30 3 30 15 0 9 -6 17 -12 18 -114 12 -1132 25 -1142 14z"/>
<path d="M3300 2299 c0 -5 9 -9 20 -9 11 0 20 4 20 8 0 4 -9 8 -20 9 -11 1
-20 -2 -20 -8z"/>
</g>
</svg>
